<svg width="126" height="270" viewBox="0 0 126 270" fill="none" xmlns="http://www.w3.org/2000/svg">
<g clip-path="url(#clip0)">
<path d="M88.4 119.9C88.6 113.5 89.3 107.3 90.7 101C93.3 89.6 77.4 85.5 73.3 96.2C71.2 101.9 70.1 107.8 69.8 113.9C69.3 122.8 82.5 126.2 86.6 118.4C92.3 107.7 98 96.9 103.6 86.2C98.4 83.2 93.2 80.1 88.1 77.1C83.1 86.7 78.1 96.3 73.2 105.9C67.8 116.3 82.2 124.4 88.7 115C95.4 105.4 102 95.9 108.7 86.3C103.5 83.3 98.3 80.2 93.2 77.2C89.2 83.5 85.5 89.9 81.8 96.4C76.1 106.6 90.9 115 97.3 105.5C103.1 96.9 109.4 88.8 116.2 81C111.5 77.4 106.8 73.7 102.1 70.1C98.7 74.8 94.9 79 91 83C95.7 86.6 100.4 90.3 105.1 93.9C109.7 86 114.2 78.2 118.8 70.3C123.8 61.8 111.3 51.3 104.7 59.4C103 61.5 101.2 63.6 99.5 65.8C104.5 68.7 109.5 71.6 114.5 74.6C116.5 62.7 116.6 51.3 114.9 39.4C114.4 35.6 109.8 32.8 106.2 32.8C102 32.8 98.9 35.6 97.5 39.4C93.4 50.7 89.3 62.1 85.2 73.4C91 75 96.8 76.6 102.6 78.2C105.9 65 109.7 51.9 114 39C108.2 37.4 102.4 35.8 96.6 34.2C92.3 47.4 87.5 60.5 82.4 73.3C78.6 82.8 94.3 89.3 98.8 80.2C104.9 68.2 109.2 55.5 111.2 42.2C111.9 37.4 110 32.5 104.9 31.1C100.3 29.8 95 32.7 93.8 37.4C91.8 45.5 89.3 53.4 86.2 61.1C92 62.7 97.8 64.3 103.6 65.9C106.9 56.6 109.3 47 110.7 37.2C111.4 32.8 110 28.4 105.5 26.6C101.7 25.1 96.2 26.2 94.3 30.3C89.6 40.6 85 51.2 80.7 61.8C76.9 71.2 92.5 77.7 97.1 68.7C103 57.2 107.9 45.2 111.8 32.8C106 32.8 100.2 32.8 94.4 32.8C95.6 41.7 93 49.9 97.7 58.3C100.8 63.6 107.5 63.8 111.8 60.1C117.4 55.3 119.1 50.1 120 42.8C120.9 35.7 120.4 28.7 120.3 21.6C114.3 21.6 108.3 21.6 102.3 21.6C103.1 31.6 103.2 41.6 102.3 51.6C101.5 61.6 118.5 64.1 120 54C121.7 42.5 121.5 31.3 119.1 19.9C117 10 100.9 12.1 101.4 22.3C102.2 36.8 103.7 51.2 105.6 65.6C106.8 74.4 121.4 74 123 65.6C124.2 59.3 124.8 53 124.3 46.6C123.6 35.1 105.9 34.9 106.3 46.6C106.5 53.1 105.9 59.3 104.2 65.7C110.1 66.5 116 67.3 121.9 68.1C122.1 63.6 122.4 59.1 123.2 54.7C124 49.9 121.9 45 116.9 43.6C112.4 42.4 106.9 45.1 105.8 49.9C104.7 55.2 103.5 60.4 102.4 65.7C100 77 116.8 81.8 119.8 70.5C122.9 58.6 121.5 46.7 121.1 34.6C115.2 35.4 109.3 36.2 103.4 37C104.8 42.5 106.3 47.9 107.7 53.4C110.2 63 125.9 61.3 125.4 51C124.9 41.8 123.5 32.6 121.2 23.7C119 15.2 106 15.1 103.8 23.7C102.9 27.1 102.5 30.6 102.8 34.1C103.7 45.5 120.7 45.8 120.8 34.1C120.9 23.9 117.2 12.2 105.4 10.9C93.8 9.60001 88 22.2 91.5 32.2C93.8 38.7 101.4 40.9 106.5 36.2C112.5 30.7 116.8 22.5 112.8 14.5C109.2 7.50001 101.1 4.90001 94.1 8.60001C88.3 11.7 83.9 18.6 84.2 25.2C84.5 33.4 92.3 38.9 100.1 36.7C112.2 33.4 122 15.1 108.6 6.80001C102.4 3.00001 94.3 5.70001 89.5 10.5C84.5 15.5 82.6 22.8 82.3 29.6C82.1 34.1 86.6 39.1 91.3 38.6C104 37.2 113.5 30 118.2 18.2C120 13.9 116.4 7.70001 112 7.00001C97.8 4.70001 85.2 11.9 80 25.3C77.6 31.5 84.9 38.6 91.1 36.4C99.5 33.3 106.9 28.7 113.3 22.3C118.8 16.7 114.8 7.00001 106.9 6.90001C96.5 6.80001 68.3 8.50001 72.9 25.6C74.9 33.2 82.9 35 89.8 33.4C96.6 31.9 101.7 26.8 103.4 20.1C105 13.2 99 7.70001 92.2 9.10001C88 10 84.2 12.1 83 16.6C82.2 19.6 83 23.2 85.3 25.4C91.3 31.1 101.1 28.1 103.3 20.2C105.3 12.9 98.8 8.20001 92.2 9.10001C80.5 10.8 72.9 21.4 67.8 31.2C64.7 37.2 63.8 44.5 67.8 50.3C72.5 57.1 81.6 56.5 86.7 50.5C81.6 48.4 76.5 46.3 71.3 44.1C70.2 56.2 65 67.6 56.8 76.5C61 76.5 65.3 76.5 69.5 76.5C64 69.8 59.3 62.3 55.3 54.4C51.3 46.6 38 50.1 38.5 58.9C39.3 73.8 42.4 88.4 47.9 102.3C53.4 100 58.9 97.7 64.3 95.4C57.5 84 49.1 73.5 39.3 64.6C33.1 59 21.1 64.4 24.3 73.4C28.2 84.3 33.6 94 40.9 103C45.1 98.8 49.4 94.5 53.6 90.3C45.6 82.7 41.4 73.1 30 70.1C23.1 68.2 17.5 74.5 18.9 81.2C21.8 94.6 32.4 104 43.9 110.5C54 116.2 63 100.8 53 94.9C45.4 90.4 37.8 85.9 30.2 81.4C22.6 76.9 13.1 86 17.9 93.7C23.5 102.7 30.8 110.2 39.7 116C48.1 121.5 58.7 108.3 50.6 101.9C44.3 96.9 37.7 92.2 30.9 87.8C26.8 85.2 21 87 18.6 91C15.9 95.6 18 100.3 21.8 103.3C29.4 109.1 37.5 114.1 46.2 118.1C50.3 120 55 119.6 57.8 115.8C60.4 112.4 60.5 107 57.1 104C53.7 100.9 50 98.1 45.9 95.9C37.3 91.2 27 103.1 35 110C40.8 115 46.9 119.6 53.4 123.7C62.3 129.4 71 116.9 64.3 109.6C60.2 105.1 56 100.8 51.6 96.7C48 101.4 44.3 106.1 40.7 110.8C48.4 115.9 56 121 63.7 126.1C73.4 132.6 82.2 117.1 72.8 110.6C66.9 106.5 61.6 101.7 56.8 96.4C53.5 92.8 47.4 93.1 44.1 96.4C40.4 100.1 41 105.4 44.1 109.1C50.4 116.8 57 124.2 65.7 129.3C73.1 133.7 83.2 124.6 78 117C70.7 106.2 63.4 95.4 60.5 82.5C55 84.8 49.5 87.1 44.1 89.4C47.8 97.3 51.6 105.1 55.6 112.8C59.6 120.4 73.4 117.2 72.4 108.3C71.4 99.5 69.6 91 66.3 82.7C60.8 85 55.3 87.3 49.9 89.6C51.9 93.8 53.1 98.2 53.8 102.8C59.6 101.2 65.4 99.6 71.2 98C68.2 85 64.4 72.2 56.6 61.1C57 62.6 57.4 64.1 57.8 65.6C57.6 56.5 49.1 48 40 53.8C36 56.3 33.7 60.9 32.6 65.3C31.8 68.5 32.4 72.4 30.4 75.2C35.9 75.9 41.4 76.6 46.8 77.3C42.9 64.6 36.5 53.3 27.6 43.5C22.3 37.6 12.1 42.3 12.2 49.9C12.4 63.3 14.9 76.6 19.9 89C25.4 86.7 30.9 84.4 36.3 82.1C31.2 71.5 26.1 60.7 20.9 50C16.5 40.9 0.900033 47.3 4.50003 56.9C8.90003 68.7 12.4 80.9 14.8 93.3C20.3 91 25.8 88.7 31.2 86.4C26.3 77.1 23.1 67.3 21.3 57C20.5 52.2 14.6 49.5 10.2 50.7C5.10003 52.2 3.10003 57 3.90003 61.8C5.60003 71.9 7.70003 81.5 11.9 90.8C13.7 94.8 19.4 96.1 23.1 94.5C27.4 92.6 29.2 88.4 28.3 83.9C25.8 71.4 23.4 58.9 20.9 46.4C15.1 48 9.30003 49.6 3.50003 51.2C4.70003 56.6 6.70003 61.8 9.40003 66.7C14.2 75.2 25.2 70.3 26.2 62.2C27.4 52.4 26.3 42.5 23.1 33.2C21.7 29 17.8 26.1 13.2 26.8C9.20003 27.4 4.90003 31.1 5.40003 35.6C6.20003 43.4 7.60003 50.9 9.70003 58.4C12.5 68.2 27.1 66.2 27.4 56C27.6 47.5 26.2 39 23.1 31C19.5 21.6 6.10003 22.9 5.40003 33.4C5.10003 40.6 4.80003 47.8 4.60003 55C10.6 55 16.6 55 22.6 55C22.7 47.8 22.5 40.6 22 33.4C21.3 23.6 7.20003 20.8 4.30003 31C3.70003 33.3 3.00003 35.5 2.40003 37.8C-0.699967 49 16.7 53.8 19.8 42.6C20.4 40.3 21.1 38.1 21.7 35.8C15.8 35.1 9.90003 34.3 4.00003 33.5C4.60003 40.6 4.80003 47.8 4.60003 55C4.40003 66.6 22.4 66.6 22.6 55C22.7 47.8 23 40.6 23.5 33.4C17.6 34.2 11.7 35 5.80003 35.8C8.40003 42.5 9.70003 49 9.50003 56C15.4 55.2 21.3 54.4 27.2 53.6C25.5 47.7 24.2 41.7 23.5 35.5C17.6 36.3 11.7 37.1 5.80003 37.9C8.50003 45.9 9.30003 53.7 8.30003 62.1C13.9 60.6 19.5 59.1 25.1 57.6C23.1 54 21.9 50.5 21 46.4C18.5 35.1 1.40003 40 3.60003 51.3C6.10003 63.8 8.50003 76.3 11 88.8C16.5 86.5 22 84.2 27.4 81.9C24 74 22.7 65.4 21.3 57C15.5 58.6 9.70003 60.2 3.90003 61.8C6.00003 73.6 10 84.9 15.7 95.5C20.7 105 34 98.1 32.1 88.6C29.7 76.1 26.3 64 21.9 52.1C16.4 54.4 10.9 56.7 5.50003 59C10.6 69.8 15.8 80.5 20.9 91.3C25.2 100.4 41.2 93.9 37.3 84.4C32.8 73.4 30.3 62 30.2 50C25.1 52.1 20 54.2 14.8 56.4C21.5 63.9 26.4 72.6 29.3 82.2C31.7 90.1 41.3 90.5 45.7 84.3C47.8 81.4 48.6 78.1 49.1 74.7C49.3 73.3 49.3 71.8 49.6 70.4C50 68.5 50.8 68.2 49.5 69C48 69.4 46.5 69.8 45 70.2C44.3 70 43.6 69.7 43 69.5C41.9 68.4 40.8 67.3 39.8 66.3C39.6 64.5 39.5 64.4 39.6 65.8C39.7 66.6 39.8 67.4 39.9 68.2C40.4 70.2 41.8 71.7 42.9 73.4C44.8 76.4 46.5 79.6 47.9 82.9C50.5 89.3 52.1 96.2 53.7 102.9C54.8 107.6 60.2 110.4 64.8 109.2C69.9 107.8 71.9 102.9 71.1 98.1C70.1 91.9 68 86.2 65.4 80.6C60.9 71.5 45 78 48.8 87.5C51.5 94.2 53.5 101.1 54.3 108.3C59.9 106.8 65.5 105.3 71.1 103.8C67.1 96.1 63.2 88.3 59.6 80.4C55.2 70.8 40.9 77.8 43.2 87.3C46.5 101.6 54.4 114 62.6 126.1C66.7 122 70.8 117.9 74.9 113.8C67.6 109.5 62.3 102.9 56.9 96.4C52.7 100.6 48.4 104.9 44.2 109.1C50.1 115.6 56.7 121.2 63.9 126.1C66.9 120.9 70 115.7 73 110.6C65.3 105.5 57.7 100.4 50 95.3C41.5 89.6 31.7 102.5 39.1 109.4C43.5 113.5 47.7 117.8 51.8 122.3C55.4 117.6 59.1 112.9 62.7 108.2C57.5 104.9 52.6 101.3 47.9 97.3C44.3 102 40.6 106.7 37 111.4C39.8 112.9 42.2 114.6 44.6 116.7C48.2 112 51.9 107.3 55.5 102.6C46.8 98.5 38.7 93.6 31.1 87.8C28.1 93 25 98.2 22 103.3C27.5 106.8 32.9 110.5 38 114.6C41.6 109.9 45.3 105.2 48.9 100.5C42.6 96.4 37.5 91 33.5 84.7C29.4 88.8 25.3 92.9 21.2 97C28.8 101.5 36.4 106 44 110.5C47 105.3 50.1 100.1 53.1 95C45.5 90.7 38.3 85.4 36.4 76.5C32.7 80.2 29 83.9 25.3 87.6C32.2 89.5 35.9 98.4 40.9 103.1C49.5 111.2 60.7 99.2 53.6 90.4C48.4 84 44.4 76.5 41.7 68.7C36.7 71.6 31.7 74.5 26.7 77.5C35.5 85.5 42.9 94.5 48.9 104.7C53.9 113.1 69.2 107.5 65.3 97.8C60.4 85.4 57.3 72.5 56.6 59.2C51 60.7 45.4 62.2 39.8 63.7C44.6 73 50.4 81.5 57 89.5C60 93.1 66.7 92.8 69.7 89.5C81.3 76.9 87.9 61.4 89.4 44.3C90.1 36.5 79 32 74 37.8C74.3 37.8 74.5 37.7 74.8 37.7C76.4 37.7 78 37.7 79.6 37.7C79.8 37.8 80 37.9 80.1 38C81.2 39.1 82.3 40.2 83.3 41.2C83 40.9 81.9 42.7 83.4 40.5C83.8 39.9 84.1 39.1 84.4 38.5C85.6 36.4 86.9 34.2 88.3 32.2C90.7 28.7 92.8 26.9 97 26.3C93.3 22.6 89.6 18.9 85.9 15.2C85.8 15.4 85.8 15.7 85.7 15.9C86.5 14.6 87.2 13.3 88 11.9C90.1 11.4 92.2 10.9 94.2 10.3C95.5 11.1 96.8 11.8 98.2 12.6C98.1 12.5 98.1 12.5 98 12.4C98.8 15.3 99.5 18.2 100.3 21.2C100.3 21.1 100.3 21 100.4 20.9C99 22.7 97.6 24.5 96.3 26.3C95 26.7 95.3 26.7 97 26.3C93.3 22.6 89.6 18.9 85.9 15.2C84.7 20.1 86 14.5 86.1 15.7C86.2 16.7 84.6 15.9 85 15.9C86.3 16.7 87.6 17.4 89 18.2C88.7 18 88.5 17.8 88.2 17.6C89 18.9 89.7 20.2 90.5 21.6C90.6 22.3 90.6 22.9 90.7 23.6C89.9 24.9 89.2 26.2 88.4 27.6C87 27.9 87.2 27.8 89.1 27.2C89.6 27 90.1 26.9 90.7 26.7C92.6 26.1 94.5 25.7 96.4 25.4C99.9 24.8 103.4 24.8 107 24.8C104.9 19.7 102.8 14.6 100.6 9.40001C96.5 13.5 91.9 16.8 86.4 18.8C90.1 22.5 93.8 26.2 97.5 29.9C98.9 26.4 103.6 23.6 107.3 24.2C105.2 20.5 103.1 16.8 101 13.1C99.5 16.8 95.4 19.9 91.5 20.3C94.5 23.3 97.5 26.3 100.5 29.3C100.6 27.6 101.2 26.1 101.5 24.4C102 21.9 104.4 23.7 100.1 21.4C95.9 19.2 98.8 20.2 97.2 17.8C96.9 17.3 98.6 17.4 97.3 17.6C97.3 17.6 95.8 19.1 96.2 18.6C94.6 20.6 94.4 16.3 98.8 19.4C99.9 20.5 101 21.6 102 22.6C100.2 20.2 102.3 25.3 102.3 24.7C102.5 24.3 102.8 24 103.2 23.8C103.2 24.8 102.3 25.2 100.4 24.8C99.1 24 97.8 23.3 96.4 22.5C97.5 23.7 97.7 23.4 96.9 21.8C96.8 20.2 96.6 19.9 96.2 20.8C95.5 21 94.2 22.8 93.7 23.3C98.7 24.6 103.7 25.9 108.7 27.3C108.4 26.5 107.8 25.1 108.3 24.9C108.2 25 107.6 26.8 107.3 27.1C105.9 27.6 104.5 28 103.1 28.5C102.9 28.7 102.8 28.5 102.6 28C101.8 28.5 102.7 27 102.6 28.5C102.6 28.4 102.8 29.7 102.8 29.5C103 30.7 103 32.5 103 33.9C109 33.9 115 33.9 121 33.9C120.8 31.9 120.9 30.3 121.4 28.3C115.6 28.3 109.8 28.3 104 28.3C105.9 35.7 107.1 43.2 107.5 50.9C113.4 50.1 119.3 49.3 125.2 48.5C123.8 43 122.3 37.6 120.9 32.1C118.4 22.4 102.9 24.2 103.2 34.5C103.5 44.9 105.2 55.4 102.5 65.6C108.3 67.2 114.1 68.8 119.9 70.4C121 65.1 122.2 59.9 123.3 54.6C117.5 53 111.7 51.4 105.9 49.8C104.9 55.8 104.2 61.9 104 68C103.6 78.2 119.1 80.2 121.7 70.4C123.7 62.6 124.7 54.6 124.4 46.6C118.4 46.6 112.4 46.6 106.4 46.6C106.7 51.4 106.6 56.1 105.7 60.8C111.5 60.8 117.3 60.8 123.1 60.8C121.4 48 120.2 35.1 119.5 22.2C113.6 23 107.7 23.8 101.8 24.6C103.5 32.6 103.9 41 102.7 49.1C108.6 49.9 114.5 50.7 120.4 51.5C121.2 41.5 121.2 31.5 120.4 21.5C119.4 10.1 102.2 9.70001 102.4 21.5C102.5 26.8 102.8 32.1 102.6 37.4C102.5 39.6 102.2 41.7 101.8 43.8C101.5 45.8 101.1 45.6 99.2 47.2C103.9 47.8 108.6 48.4 113.3 49C111.9 46.5 112.3 43.1 112.4 40.3C112.5 36.1 112.3 32 111.8 27.8C110.5 18.4 96.9 20.2 94.4 27.8C91.1 39 86.8 49.4 81.6 59.6C87.1 61.9 92.6 64.2 98 66.5C101.7 57.3 105.7 48.2 109.9 39.2C104.4 36.9 98.9 34.6 93.5 32.3C92.1 42.1 89.7 51.7 86.4 61C84.8 65.6 88.2 70.8 92.7 72.1C97.8 73.5 102 70.4 103.8 65.8C106.8 58 109.4 50.1 111.4 42.1C105.6 40.5 99.8 38.9 94 37.3C92.1 49.1 88.7 60.4 83.3 71C88.8 73.3 94.3 75.6 99.7 77.9C104.9 65 109.6 52 113.9 38.8C117.5 27.8 100.2 23.1 96.5 34C92.2 46.9 88.4 60 85.1 73.2C82.2 84.6 98.6 88.8 102.5 78C106.6 66.7 110.7 55.3 114.8 44C109 44 103.2 44 97.4 44C98.6 52.4 98.4 61.3 97 69.7C96.3 73.7 97.4 77.7 101.1 79.9C104.3 81.8 109.5 81.5 112 78.5C113.7 76.4 115.5 74.3 117.2 72.1C112.5 68.5 107.8 64.8 103.1 61.2C98.5 69.1 94 76.9 89.4 84.8C84.3 93.6 96.3 103.1 103.5 95.7C108.5 90.6 113.1 85.1 117.4 79.3C123.5 71.1 110 60.8 103.3 68.4C95.4 77.3 88.2 86.7 81.6 96.5C86.8 99.5 92 102.6 97.1 105.6C100.7 99.1 104.5 92.7 108.5 86.4C114.7 76.5 99.5 67.9 93 77.3C86.3 86.9 79.7 96.4 73 106C78.2 109 83.4 112.1 88.5 115.1C93.5 105.5 98.5 95.9 103.4 86.3C108.7 76 93.3 66.9 87.9 77.2C82.2 87.9 76.5 98.7 70.9 109.4C76.5 110.9 82.1 112.4 87.7 113.9C87.9 109.4 89 105.2 90.6 101C84.8 99.4 79 97.8 73.2 96.2C71.4 104 70.4 111.9 70.2 119.9C70.1 131.5 88.1 131.5 88.4 119.9Z" fill="#2F4FD3"/>
<path d="M91.1001 41.8C91.3001 38.4 90.9001 35 90.3001 31.7C88.8001 24.2 77.3001 22.8 73.9001 29.6C69.5001 38.2 65.1001 46.8 60.7001 55.4C58.7001 59.4 59.3001 64.2 63.0001 67C66.3001 69.4 72.0001 69.8 74.8001 66.3C80.7001 59 85.1001 51.5 88.7001 42.8C92.2001 34.4 79.4001 27.7 73.7001 34C72.0001 35.9 70.3001 37.8 68.5001 39.7C73.5001 42.6 78.5001 45.5 83.5001 48.5C84.7001 44.7 86.0001 40.9 87.2001 37.1C89.9001 28.8 78.1001 21.5 72.2001 28.3C69.6001 31.3 67.0001 34.3 64.4001 37.4C69.4001 40.3 74.4001 43.2 79.4001 46.2C80.0001 44.4 80.7001 43.3 82.0001 42C77.3001 38.4 72.6001 34.7 67.9001 31.1C65.8001 34.4 63.8001 37.6 61.7001 40.9C56.3001 49.4 69.4001 59.9 75.8001 51.8C78.8001 48.1 81.8001 44.3 84.8001 40.6C80.1001 37 75.4001 33.3 70.7001 29.7C69.8001 31.8 68.8001 33.9 67.9001 36C66.1001 40.1 66.4001 44.7 70.2001 47.6C73.6001 50.2 79.0001 50.3 82.0001 46.9C86.3001 42.1 90.7001 37.3 95.0001 32.5C102.7 23.9 90.1001 11.1 82.3001 19.8C80.1001 22.2 77.9001 24.6 75.8001 27C68.1001 35.6 80.3001 48 88.5001 39.7C91.7001 36.4 95.0001 33.2 98.2001 29.9C105.2 22.9 95.9001 9.69999 87.3001 15.8C84.4001 17.9 81.5001 19.9 78.6001 22C82.2001 26.7 85.9001 31.4 89.5001 36.1C92.3001 33.7 95.1001 31.3 98.0001 28.9C106 21.7 95.7001 9.99999 87.0001 14.5C82.4001 16.9 78.3001 20 74.8001 23.8C66.7001 32.5 78.6001 43.6 87.5001 36.5C91.3001 33.5 95.1001 30.4 99.0001 27.4C106.9 21.1 96.3001 7.09999 88.1001 13.3C82.6001 17.4 77.2001 21.5 71.7001 25.6C67.8001 28.5 65.8001 33.4 68.5001 37.9C70.8001 41.8 76.8001 43.9 80.8001 41.1C85.8001 37.6 90.4001 33.8 94.7001 29.5C101.7 22.4 92.6001 9.79999 83.8001 15.4C78.9001 18.5 74.3001 22.1 70.3001 26.3C63.2001 33.7 72.2001 45.4 81.2001 40.4C87.4001 37 93.4001 33.3 99.2001 29.3C108.6 22.8 100.1 7.69999 90.1001 13.8C86.2001 16.2 83.1001 19.2 81.0001 23.3C76.6001 31.7 85.3001 39.3 93.3001 35.6C97.4001 33.7 101.2 31.5 104.9 28.9C100.5 25.5 96.1001 22.1 91.7001 18.7C90.0001 23.2 88.5001 27.6 87.0001 32C83.8001 41 95.9001 46.4 102 40.8C107.1 36.1 110.6 30.4 112.7 23.8C114.1 19.6 111.5 14.8 107.5 13.2C103.1 11.4 99.0001 13.2 96.3001 16.9C93.4001 20.8 90.9001 24.9 88.7001 29.3C84.0001 38.4 95.0001 46.9 102.8 40.1C107.7 35.8 111.1 30.2 113 24C114.8 18.1 110 13 104.3 12.6C96.7001 12.1 89.4001 17.6 88.1001 25.2C86.8001 33.1 93.9001 38.9 101.3 35.4C108.1 32.2 112.3 26.6 115.2 19.8C118.1 13 110 7.39999 104.1 8.69999C95.0001 10.8 88.7001 17.3 85.5001 25.8C83.2001 32.1 90.3001 39.1 96.6001 36.9C104.6 34.1 110.3 27.1 109.7 18.3C109.2 11.5 102.4 6.99999 96.2001 10.5C90.6001 13.6 85.7001 17.7 81.7001 22.7C75.9001 30.1 81.3001 39 90.5001 37.7C99.4001 36.5 106.1 28.4 108.3 20.1C109.6 15.1 105.6 7.89999 99.6001 8.69999C84.8001 10.7 78.9001 21.5 73.2001 33.9C69.4001 42 77.2001 50.5 85.5001 46.2C93.9001 41.9 100.8 34.7 104.5 26.1C109.1 15.5 95.8001 7.49999 89.0001 17C75.9001 35 65.6001 54.6 57.6001 75.4C54.2001 84.2 66.6001 90 72.6001 84.2C80.3001 76.7 85.2001 67.3 89.7001 57.6C84.1001 56.1 78.5001 54.6 72.9001 53.1C74.3001 67.9 64.0001 80.9 64.9001 96C65.4001 104.6 77.0001 108.7 81.7001 100.5C88.8001 88.2 94.8001 75.4 100 62.2C103.8 52.7 88.4001 46.4 83.6001 55.3C75.8001 69.7 68.8001 84.4 62.6001 99.5C60.9001 103.6 64.1001 108.6 67.8001 110.1C72.1001 111.8 76.5001 110.3 79.0001 106.4C82.0001 101.8 84.3001 96.9 86.3001 91.8C80.6001 90.2 74.8001 88.6 69.0001 87C67.2001 96.5 65.4001 106 63.6001 115.5C69.5001 116.3 75.4001 117.1 81.3001 117.9C81.4001 117.1 81.5001 116.3 81.5001 115.6C75.6001 116.4 69.7001 117.2 63.8001 118C64.4001 120.5 65.1001 123 65.9001 125.4C69.5001 136.4 86.9001 131.7 83.3001 120.6C82.5001 118.2 81.8001 115.7 81.2001 113.2C78.6001 102.8 64.5001 106 63.5001 115.6C63.4001 116.4 63.3001 117.2 63.3001 117.9C62.3001 127.9 79.1001 130.3 81.0001 120.3C82.8001 110.8 84.6001 101.3 86.4001 91.8C88.5001 80.3 73.1001 76.2 69.0001 87C67.6001 90.6 65.7001 94 63.6001 97.3C69.1001 99.6 74.6001 101.9 80.0001 104.2C85.7001 90.5 92.1001 77.2 99.2001 64.3C93.7001 62 88.2001 59.7 82.8001 57.4C78.1001 69.1 72.6001 80.5 66.3001 91.4C71.9001 92.9 77.5001 94.4 83.1001 95.9C82.2001 81.1 92.4001 68.2 91.1001 53C90.7001 49 88.6001 45.4 84.5001 44.3C80.9001 43.3 76.0001 44.9 74.3001 48.4C70.4001 56.6 66.6001 64.9 60.0001 71.3C65.0001 74.2 70.0001 77.1 75.0001 80.1C82.4001 60.8 92.4001 42.7 104.5 26C99.3001 23 94.1001 19.9 89.0001 16.9C86.3001 23.1 82.4001 27.4 76.4001 30.6C80.5001 34.7 84.6001 38.8 88.7001 42.9C90.7001 38.6 94.0001 27.4 99.6001 26.6C96.7001 22.8 93.8001 19 90.9001 15.2C90.1001 18.2 88.7001 19.8 85.7001 20.2C88.6001 25.2 91.5001 30.2 94.5001 35.2C97.6001 31.3 101 28.2 105.4 25.8C100.9 23.2 96.4001 20.6 91.9001 18C91.9001 18.6 92.0001 19 91.8001 19.5C91.7001 19.7 92.5001 19 92.0001 19.2C95.7001 22.9 99.4001 26.6 103.1 30.3C104.1 27.5 106.4 26.3 109.1 25.7C105.4 22 101.7 18.3 98.0001 14.6C97.0001 17 94.6001 18.4 92.4001 19.4C96.8001 22.8 101.2 26.2 105.6 29.6C106.2 26.2 104.4 30.2 104.4 30.2C101.5 26.4 98.6001 22.6 95.7001 18.8C94.7001 22.2 92.9001 24.6 90.2001 27C94.9001 30.6 99.6001 34.3 104.3 37.9C106.5 33.6 109 29.5 111.9 25.5C106.4 23.2 100.9 20.9 95.5001 18.6C94.3001 22.3 92.3001 25.1 89.5001 27.6C94.5001 30.5 99.5001 33.4 104.5 36.4C106 32 107.6 27.6 109.1 23.3C111.6 16.1 102.2 8.69999 95.9001 13.1C92.2001 15.7 88.4001 17.9 84.3001 19.8C88.4001 23.9 92.5001 28 96.6001 32.1C97.4001 30.5 97.7001 30 99.2001 29.1C96.1001 24.2 93.0001 19 90.0001 13.8C84.2001 17.8 78.2001 21.5 72.0001 24.9C75.6001 29.6 79.3001 34.3 82.9001 39C85.9001 35.9 89.1001 33.2 92.8001 30.9C89.2001 26.2 85.5001 21.5 81.9001 16.8C78.7001 20 75.4001 23 71.7001 25.6C74.7001 30.8 77.8001 36 80.8001 41.1C86.3001 37 91.7001 32.9 97.2001 28.8C93.6001 24.1 89.9001 19.4 86.3001 14.7C82.5001 17.7 78.7001 20.8 74.8001 23.8C79.0001 28 83.3001 32.3 87.5001 36.5C90.1001 33.7 92.7001 31.8 96.1001 30C92.5001 25.3 88.8001 20.6 85.2001 15.9C82.4001 18.3 79.6001 20.7 76.7001 23.1C69.0001 29.7 79.3001 43.2 87.6001 37.2C90.5001 35.1 93.4001 33.1 96.3001 31C92.7001 26.3 89.0001 21.6 85.4001 16.9C82.2001 20.2 78.9001 23.4 75.7001 26.7C79.9001 30.9 84.2001 35.2 88.4001 39.4C90.6001 37 92.8001 34.6 94.9001 32.2C90.7001 28 86.4001 23.7 82.2001 19.5C77.9001 24.3 73.5001 29.1 69.2001 33.9C73.9001 37.5 78.6001 41.2 83.3001 44.8C84.2001 42.7 85.2001 40.6 86.1001 38.5C87.9001 34.4 87.6001 29.8 83.8001 26.9C80.5001 24.5 74.8001 24.1 72.0001 27.6C69.0001 31.3 66.0001 35.1 63.0001 38.8C67.7001 42.4 72.4001 46.1 77.1001 49.7C79.2001 46.4 81.2001 43.2 83.3001 39.9C88.8001 31.2 76.3001 21.7 69.2001 29C65.7001 32.5 63.4001 36.5 62.0001 41.2C59.4001 49.5 71.1001 56.8 77.0001 50C79.6001 47 82.2001 44 84.8001 40.9C79.8001 38 74.8001 35.1 69.8001 32.1C68.6001 35.9 67.3001 39.7 66.1001 43.5C63.4001 51.9 75.2001 58.9 81.1001 52.3C82.8001 50.4 84.5001 48.5 86.3001 46.6C81.3001 43.7 76.3001 40.8 71.3001 37.8C69.0001 43.3 65.8001 48.7 62.1001 53.3C66.8001 56.9 71.5001 60.6 76.2001 64.2C80.6001 55.6 85.0001 47 89.4001 38.4C83.9001 37.7 78.4001 37 73.0001 36.3C73.4001 38.1 73.3001 39.8 73.2001 41.7C72.3001 53.3 90.3001 53.3 91.1001 41.8Z" fill="#2F4FD3"/>
<path d="M43.4 37.2C42.2 36.3 41 35.5 39.7 34.6C36.7 39.8 33.6 45 30.6 50.1C38.1 55.3 45.6 60.2 53.3 65C55.6 59.5 57.9 54 60.2 48.6C49.5 45.9 40 40.5 30.4 35C21.9 30.1 11.4 42.5 19.5 49.1C26.6 54.9 33.9 60.3 41.5 65.2C44.5 60 47.6 54.8 50.6 49.7C43.4 45.5 37.2 40.1 32.5 33.2C29.9 37.7 27.3 42.2 24.7 46.7C32.8 47.5 41.5 53 48.8 56.3C59.3 61 67.5 47.5 57.9 40.8C53 37.4 48.1 34 43.2 30.6C36 25.6 28.9 33.8 30 40.8C31.1 47.5 37.5 51.8 42.8 55.3C48.2 58.9 54.1 61.6 60.2 63.7C69.8 67.1 76.2 51.9 67.1 47.3C58.9 43.1 50.8 38.9 44.6 31.9C40.4 36.1 36.1 40.4 31.9 44.6C37.3 50.6 43.8 54.7 51.3 57.6C55.4 59.2 60.4 56.1 61.9 52.4C63.7 48 61.9 43.9 58.2 41.2C52.6 37.1 46.9 32.9 41.3 28.8C32.8 22.5 23.7 35.8 30.4 42.9C36.7 49.7 44.3 54.4 52.9 57.5C57.1 59 62 56.1 63.5 52.3C65.3 47.9 63.5 43.8 59.8 41.1C54.8 37.4 49.8 33.7 44.7 30C41.1 27.4 35.5 29.1 33.1 32.3C30.2 36.2 30.9 40.5 33.8 44.1C40 52 49.1 56.5 58.2 60.5C66.4 64.1 74.8 56.7 70.5 48.2C66.7 40.6 58.6 40.6 52.8 35.6C45.5 29.3 40.4 23.3 30.2 22.1C24.2 21.4 20.2 28.4 21.5 33.5C23 39.3 28.3 43.6 34.4 43.2C42.2 42.7 46.2 33.7 40.8 27.8C35.1 21.5 25 22 17.1 21.2C17.9 27.1 18.7 33 19.5 38.9C21.2 38.4 22.9 37.9 24.6 37.4C32.3 35.2 33.1 25.1 26.7 21C21.7 17.5 15 18 10.1 21.5C4.90003 25.1 3.10003 31.1 2.80003 37.1C8.80003 37.1 14.8 37.1 20.8 37.1C20.7 35.8 20.6 34.6 20.5 33.3C19.6 21.9 2.40003 21.6 2.50003 33.3C2.60003 44.6 -0.899966 56 6.30003 65.9C9.10003 69.8 14.1 71.8 18.6 69.1C22.5 66.8 24.7 60.7 21.8 56.8C17.1 50.2 20.5 40.8 20.4 33.3C14.4 33.3 8.40003 33.3 2.40003 33.3C2.50003 34.6 2.60003 35.8 2.70003 37.1C3.60003 48.6 20.1 48.8 20.7 37.1C20.9 32.8 20.5 38.3 17.7 36.4C18.4 30.9 19.1 25.4 19.8 20C18.1 20.5 16.4 21 14.7 21.5C4.30003 24.4 7.40003 38.1 17.1 39.2C19.7 39.5 22.4 39.8 25 40.1C25.7 40.2 27.7 40.1 28 40.5C30.1 35.4 32.2 30.3 34.4 25.1C34.8 25.2 35.3 25.3 35.7 25.4C36.8 26.5 37.9 27.6 38.9 28.6C38.9 28.6 38.9 28.6 38.8 28.7C35.9 32.5 33 36.3 30.1 40.1C31.9 40.3 33.9 42.5 35.2 43.7C37.6 46 39.9 48.4 42.5 50.5C45.3 52.8 48.2 54.2 51.5 55.5C52.1 55.8 52.8 56 53.4 56.3C53.9 56.5 54.5 56.8 55 57.2C54 56 54 56.1 54.8 57.4C58.9 53.3 63 49.2 67.1 45.1C59.4 41.7 51.7 38.2 46.3 31.4C42.7 36.1 39 40.8 35.4 45.5C40.4 49.2 45.4 52.9 50.5 56.6C52.8 51.1 55.1 45.6 57.4 40.2C51.7 38.1 47 34.7 42.8 30.2C39.2 34.9 35.5 39.6 31.9 44.3C37.5 48.4 43.2 52.6 48.8 56.7C51.1 51.2 53.4 45.7 55.7 40.3C51.2 38.5 47.5 35.5 44.3 31.9C36.5 23.3 24 36 31.6 44.6C38.7 52.7 48.2 58 57.8 62.8C60.1 57.3 62.4 51.8 64.7 46.4C61.1 45.1 57.8 43.5 54.5 41.6C52.4 40.4 47.4 37.7 47.1 36C42.7 39.4 38.3 42.8 33.9 46.2C38.8 49.6 43.7 53 48.6 56.5C51.6 51.3 54.7 46.1 57.7 41C47.2 36.1 36.5 30 24.7 28.8C18.1 28.2 13.2 37 16.9 42.3C23.4 51.7 31.6 59.5 41.5 65.2C51.6 71.1 60.3 55.9 50.6 49.7C44.2 45.6 38.1 41.2 32.2 36.4C28.6 41.1 24.9 45.8 21.3 50.5C32.2 56.8 43.3 62.9 55.5 66C65.4 68.5 71.2 55 62.4 49.6C54.7 44.8 47.1 39.8 39.7 34.7C35.7 31.9 29.7 34 27.4 37.9C24.8 42.4 26.7 47.4 30.6 50.2C31.8 51.1 33 51.9 34.3 52.8C38.3 55.6 44.3 53.5 46.6 49.6C49.2 45 47.3 40 43.4 37.2Z" fill="#2F4FD3"/>
<path d="M80.5999 124.7C79.9999 124.5 79.4999 124.3 78.8999 124.1C76.9999 123.4 75.1999 125.2 75.0999 127C74.9999 128.7 75.0999 130.4 75.2999 132.1C76.9999 131.4 78.6999 130.7 80.3999 130C79.8999 129.4 79.4999 128.8 79.1999 128.1C78.5999 126.6 77.1999 125.5 75.4999 126C73.8999 126.4 72.9999 128.1 73.3999 129.7C74.1999 132.4 75.5999 134.7 77.7999 136.4C80.2999 138.4 84.2999 135.9 82.4999 132.8C81.2999 130.6 79.5999 128.9 77.5999 127.4C74.7999 125.3 71.6999 129.7 73.9999 132.1C74.7999 133 75.3999 133.9 75.9999 134.9C77.4999 137.9 82.6999 135.8 81.4999 132.6C81.0999 131.5 80.7999 130.4 80.6999 129.1C78.6999 129.4 76.7999 129.6 74.7999 129.9C75.1999 130.8 75.5999 131.8 75.6999 132.9C77.6999 132.9 79.6999 132.9 81.6999 132.9C81.5999 132 81.5999 131.3 81.8999 130.4C79.8999 130.1 77.9999 129.9 75.9999 129.6C76.0999 130.5 76.1999 131.3 76.2999 132.2C76.5999 135 80.2999 136.5 81.8999 133.7C82.6999 132.3 83.2999 130.8 83.5999 129.3C81.7999 129.5 79.8999 129.8 78.0999 130C78.2999 130.5 78.1999 130.6 78.0999 131.1C79.9999 131.1 81.9999 131.1 83.8999 131.1C83.7999 130.8 83.7999 130.8 83.9999 130.5C82.0999 130 80.2999 129.5 78.3999 129C78.0999 131.1 77.8999 133.3 77.5999 135.4C79.4999 134.9 81.2999 134.4 83.1999 133.9C81.2999 130.8 79.2999 127.8 77.0999 124.9C75.2999 122.5 71.7999 123.3 71.4999 126.4C71.2999 128.8 72.1999 130.8 73.5999 132.6C74.7999 131 75.9999 129.5 77.1999 127.9C76.3999 127.4 75.9999 126.6 75.5999 125.8C74.8999 124.3 72.7999 124 71.4999 124.7C69.9999 125.6 69.6999 127.3 70.3999 128.8C71.1999 130.6 72.4999 132 74.0999 133.1C75.2999 134 77.0999 133.4 77.9999 132.3C78.9999 131 78.6999 129.6 77.7999 128.4C77.2999 127.8 77.3999 127.1 77.3999 126.4C75.4999 126.9 73.6999 127.4 71.7999 127.9C73.9999 130.8 75.9999 133.8 77.8999 136.9C79.5999 139.6 83.0999 138.2 83.4999 135.4C83.7999 133.3 83.9999 131.1 84.2999 129C84.6999 126 80.0999 125 78.6999 127.5C77.7999 129.1 77.5999 130.9 77.9999 132.7C78.6999 135.6 82.9999 135.5 83.7999 132.7C84.3999 130.7 84.0999 128.8 83.1999 126.9C82.1999 124.6 78.0999 125.1 77.6999 127.6C77.4999 128.7 77.1999 129.6 76.5999 130.6C78.4999 131.1 80.2999 131.6 82.1999 132.1C82.0999 131.2 81.9999 130.4 81.8999 129.5C81.4999 126.2 77.1999 125.3 75.9999 128.7C75.5999 130 75.3999 131.4 75.4999 132.8C75.6999 134.4 76.6999 135.8 78.4999 135.8C79.9999 135.8 81.6999 134.4 81.4999 132.8C81.2999 131.2 80.9999 129.7 80.3999 128.2C79.7999 126.8 78.6999 125.8 77.0999 126.1C75.6999 126.3 74.3999 127.5 74.4999 129C74.5999 130.7 74.8999 132.4 75.4999 134.1C77.2999 133.3 79.1999 132.6 80.9999 131.8C80.1999 130.3 79.1999 129 78.0999 127.7C76.8999 129.3 75.6999 130.8 74.4999 132.4C75.6999 133.3 76.4999 134.4 77.2999 135.6C78.8999 134.4 80.3999 133.2 81.9999 132C80.5999 130.9 79.5999 129.6 79.1999 127.9C77.2999 128.4 75.2999 129 73.3999 129.5C74.0999 131.2 74.9999 132.6 76.1999 134C77.7999 135.8 81.6999 134.5 81.2999 131.9C81.0999 130.2 80.9999 128.5 81.0999 126.8C79.7999 127.8 78.5999 128.7 77.2999 129.7C77.8999 129.9 78.3999 130.1 78.9999 130.3C80.4999 130.9 82.2999 129.7 82.6999 128.2C83.1999 126.7 82.0999 125.3 80.5999 124.7Z" fill="#2F4FD3"/>
<path d="M92.0002 26.6C86.0002 33.9 79.9002 41.2 73.9002 48.5C75.5002 49.7 77.0002 50.9 78.6002 52.1C80.3002 49.3 82.5002 47.6 85.5002 46.3C84.0002 45.2 82.5002 44.1 81.0002 43C78.0002 50.4 74.2002 57.4 69.8002 64.1C67.9002 67 72.1002 70.1 74.5002 67.7C78.3002 63.9 82.1002 60.2 86.8002 57.4C85.4002 56 84.1002 54.7 82.7002 53.3C79.8002 60 76.2002 66.2 71.7002 71.9C73.3002 73.1 74.8002 74.3 76.4002 75.5C79.5002 71.1 83.3002 67.3 87.7002 64.1C86.3002 62.7 85.0002 61.4 83.6002 60C80.2002 67 76.1002 73.5 71.2002 79.5C72.8002 80.7 74.3002 81.9 75.9002 83.1C79.7002 78 84.2002 73.6 89.3002 69.8C87.8002 69.2 86.4002 68.6 84.9002 68C85.4002 71 81.3002 75.4 79.8002 77.8C77.8002 81.1 75.8002 84.4 73.8002 87.7C71.8002 91 76.8002 93.9 79.0002 90.7C82.5002 85.7 86.8002 81.6 92.0002 78.3C90.6002 76.9 89.3002 75.6 87.9002 74.2C84.5002 81.1 80.3002 87.5 75.3002 93.4C72.8002 96.3 77.0002 100.6 79.5002 97.6C84.8002 91.3 89.3002 84.6 93.0002 77.2C94.3002 74.7 91.6002 71.4 88.9002 73.1C82.8002 76.9 77.9002 81.8 73.8002 87.7C75.5002 88.7 77.3002 89.7 79.0002 90.7C81.8002 86 84.7002 81.4 87.5002 76.7C89.6002 73.2 91.4002 70.5 90.7002 66.4C90.4002 64.6 87.8002 63.5 86.3002 64.6C80.3002 69 75.2002 74.1 70.8002 80C68.8002 82.7 73.4002 86.3 75.5002 83.6C80.7002 77.2 85.2002 70.3 88.9002 62.9C90.1002 60.5 87.4002 56.9 84.8002 58.8C79.5002 62.6 75.1002 67 71.4002 72.3C69.5002 75.1 74.0002 78.6 76.1002 75.9C81.0002 69.8 85.0002 63.3 88.1002 56.1C89.2002 53.5 86.8002 50.4 84.0002 52C78.9002 55 74.7002 59 70.5002 63.2C72.1002 64.4 73.6002 65.6 75.2002 66.8C79.9002 59.7 83.8002 52.2 87.0002 44.3C88.1002 41.5 84.7002 40 82.6002 40.9C78.7002 42.6 75.8002 45.2 73.6002 48.8C71.9002 51.6 76.1002 55.1 78.3002 52.4C84.3002 45.1 90.4002 37.8 96.4002 30.5C98.7002 27.9 94.4002 23.6 92.0002 26.6Z" fill="#9CB1E5"/>
<path d="M104.4 31.4C102.4 34.5 100.1 37 97.3001 39.3C98.7001 40.7 100.1 42.1 101.5 43.5C103.1 42 104.7 40.4 106.3 38.9C104.9 38.9 103.5 38.9 102.1 38.9C101.4 38.1 97.0001 44 96.2001 44.8C97.8001 46 99.3001 47.2 100.9 48.4C101.6 47.1 102.6 46 103.9 45.2C102.4 44.3 100.9 43.5 99.4001 42.6C99.1001 46.3 94.4001 49.3 92.9001 52.7C91.5001 55.8 95.0001 58.6 97.6001 56.3C99.2001 54.9 100.8 54.2 102.9 53.8C101.8 52.3 100.6 50.9 99.5001 49.4C98.3001 51.4 97.0001 53.4 95.8001 55.4C94.1001 58.1 97.4001 60.7 99.9001 59.5C100.9 59 101.8 58.6 102.8 58.1C106.3 56.4 103.2 51.3 99.8001 52.9C98.8001 53.4 97.9001 53.8 96.9001 54.3C98.3001 55.7 99.6001 57 101 58.4C102.2 56.4 103.5 54.4 104.7 52.4C106.2 50.1 103.8 47.5 101.3 48C98.2001 48.7 95.8001 50 93.4001 52C95.0001 53.2 96.5001 54.4 98.1001 55.6C100.4 50.7 105.1 48.3 105.5 42.5C105.6 40.3 102.8 38.6 101 39.9C98.9001 41.4 97.3001 43.1 95.9001 45.3C94.1001 48.2 98.3001 51.4 100.6 48.9C103.7 45.7 110.6 39.2 106.5 34.5C105.4 33.3 103.4 33.4 102.3 34.5C100.7 36 99.1001 37.6 97.5001 39.1C94.7001 41.8 98.8001 45.8 101.7 43.3C104.9 40.7 107.5 37.7 109.8 34.2C111.7 31.2 106.5 28.2 104.4 31.4Z" fill="#9CB1E5"/>
<path d="M62.3999 41.5C52.8999 31.2 40.5999 23.4 26.9999 20C15.5999 17 4.49992 19.6 1.29992 32.2C-2.40008 47.3 2.39992 64.1 6.69992 78.5C8.69992 85.2 10.3999 91.8 15.0999 97.2C19.8999 102.6 25.9999 107.1 31.8999 111.2C47.3999 121.8 66.2999 126.3 79.5999 140C80.5999 141 82.1999 139.4 81.1999 138.4C68.9999 125.8 52.4999 121.4 37.9999 112.5C30.5999 107.9 22.9999 102.6 17.0999 96.2C10.8999 89.3 9.09992 79.4 6.69992 70.7C3.39992 57.8 -5.30008 22.8 16.2999 21C24.5999 20.3 33.7999 24 40.8999 27.8C48.3999 31.7 54.9999 36.9 60.6999 43.1C61.6999 44.2 63.2999 42.6 62.3999 41.5Z" fill="black"/>
<path d="M61.3002 42.2C68.0002 26.9 81.3002 13.5 97.6002 8.69999C103.3 6.99999 109.8 6.79999 114.4 11.2C117.6 14.3 119.1 18.7 120.1 23C122.3 32.4 122.8 42.5 122.6 52.2C122.4 62.1 121.7 72.1 116.1 80.6C110.9 88.3 103.5 94.3 97.6002 101.4C87.7002 113.3 79.9002 127.5 81.0002 143.4C81.1002 144.8 83.3002 144.8 83.3002 143.4C82.2002 126.4 91.6002 111.5 102.5 99.3C107.4 93.9 112.9 89.1 117.2 83.2C121.4 77.3 123.5 70.8 124.3 63.7C125.3 54.8 125.2 45.7 124.5 36.8C123.9 30.2 123.2 23.2 120.7 17C115.3 3.79999 102.4 3.99999 90.9002 9.19999C76.7002 15.3 65.5002 27 59.3002 41.1C58.8002 42.4 60.7002 43.5 61.3002 42.2Z" fill="black"/>
<path d="M79.8001 139.7C80.5001 143.2 81.2001 146.8 80.9001 150.3C80.6001 154.9 77.7001 156.9 76.3001 160.8C74.9001 164.7 77.2001 168.2 79.4001 171.3C87.5001 182.3 100 194 96.4001 209.1C93.8001 220.2 81.2001 223.8 76.7001 233.8C71.8001 244.9 79.4001 258.2 83.4001 268.4C83.9001 269.7 86.1001 269.2 85.6001 267.8C80.7001 255.2 72.0001 239.9 83.5001 228.4C90.7001 221.2 99.0001 216.2 99.3001 204.9C99.6001 193.5 92.6001 184.1 85.7001 175.6C83.6001 173 80.5001 170.2 79.3001 167.2C76.8001 160.9 80.6001 159.8 82.2001 155.2C84.0001 150.1 82.9001 144.4 81.9001 139.3C81.7001 137.7 79.5001 138.3 79.8001 139.7Z" fill="black"/>
</g>
<defs>
<clipPath id="clip0">
<rect width="125.7" height="269.1" fill="white"/>
</clipPath>
</defs>
</svg>
