<svg width="106" height="240" viewBox="0 0 106 240" fill="none" xmlns="http://www.w3.org/2000/svg">
<g clip-path="url(#clip0)">
<path d="M60.0164 31.9047C60.0957 31.9047 60.175 31.9047 60.3336 31.9047C63.7427 31.9047 66.1212 29.6031 67.2311 26.6666C68.0239 24.6031 67.5482 22.3015 66.4383 20.4761C65.2491 18.492 62.712 16.5873 60.2543 16.9047C53.8324 17.7777 49.9476 24.0476 45.7457 28.5714C49.0755 31.9047 52.4847 35.3174 55.8145 38.6507C57.7965 36.1904 60.0164 34.1269 62.712 32.3809C59.4615 29.1269 56.2109 25.873 52.9604 22.619C48.362 29.9999 43.5258 37.1428 38.2139 43.9682C41.9402 46.8253 45.6664 49.7619 49.3927 52.619C52.5639 47.6984 56.7659 43.8888 61.7606 40.9523C58.2722 38.2539 54.7838 35.5555 51.2954 32.8571C48.9962 39.4444 45.6664 45.3968 41.5437 50.9523C39.4824 53.8095 40.8302 58.2539 43.3672 60.1587C46.3799 62.3809 49.9476 61.9841 52.7225 59.6031C56.528 56.4285 60.3336 53.3333 64.6148 50.7936C61.3642 47.5396 58.1137 44.2857 54.8631 41.0317C51.2954 49.0476 46.7764 56.5079 41.4645 63.492C39.3238 66.2698 40.7509 70.7936 43.2879 72.6984C46.2214 74.8412 49.9476 74.6031 52.6432 72.1428C57.4794 67.6984 62.3949 63.1746 67.2311 58.7301C63.9013 58.7301 60.4921 58.7301 57.1623 58.7301C57.3209 58.9682 57.5587 59.1269 57.7173 59.365C57.083 58.3333 56.528 57.3015 55.8938 56.1904C56.2109 53.8888 55.8938 53.7301 55.0217 55.6349C54.7838 56.1111 54.4667 56.5079 54.2289 56.9841C53.2775 58.5714 52.3261 60.0793 51.3747 61.6666C49.6305 64.5238 47.8863 67.4603 46.0628 70.3174C41.7816 77.3015 51.5333 84.6031 57.2416 78.9682C61.6814 74.6031 66.2797 70.4761 71.2745 66.746C67.7861 64.0476 64.2977 61.3492 60.8093 58.6507C59.2236 64.2063 56.6866 69.1269 53.2775 73.7301C49.1548 79.365 57.4001 87.7777 63.0292 83.492C66.9933 80.4761 70.9574 77.4603 74.9215 74.365C71.433 71.6666 67.9446 68.9682 64.4562 66.2698C62.3949 71.5079 59.4615 76.5079 55.8938 80.873C50.0269 88.0158 58.8272 96.8253 65.9626 90.9523C70.7988 86.9841 75.5557 83.0952 80.3919 79.1269C76.9035 76.4285 73.1772 73.5714 69.451 70.6349C65.3283 77.9365 60.4921 84.4444 54.6253 90.4761C49.2341 96.0317 56.528 106.667 63.267 101.667C65.8833 99.7619 68.4996 97.7777 71.1159 95.873C67.8654 92.619 64.6148 89.365 61.3642 86.1111C60.8093 87.3015 60.175 88.5714 59.62 89.7619C57.9551 93.2539 58.6686 97.4603 62.1571 99.5238C65.2491 101.349 70.2438 100.476 71.9087 96.9841C72.4637 95.7936 73.098 94.5238 73.6529 93.3333C75.08 90.4761 74.9215 87.0634 72.543 84.6825C70.4817 82.619 66.4383 81.746 63.9013 83.5714C61.285 85.4761 58.6686 87.4603 56.0523 89.365C58.9065 93.0952 61.8399 96.8253 64.6941 100.556C71.2745 93.7301 77.0621 86.1111 81.7397 77.8571C85.9416 70.4761 76.5864 64.2063 70.5609 69.2063C65.7247 73.1746 60.9678 77.0634 56.1316 81.0317C59.4615 84.365 62.8706 87.7777 66.2004 91.1111C71.433 84.7619 75.4764 77.9365 78.4099 70.238C80.5505 64.6825 72.7808 58.492 67.9446 62.1428C63.9805 65.1587 60.0164 68.1746 56.0523 71.2698C59.3029 74.5238 62.5535 77.7777 65.804 81.0317C69.9267 75.4761 72.8601 69.2063 74.7629 62.5396C76.3485 57.0634 69.451 50.5555 64.2977 54.4444C58.3515 58.8888 52.7225 63.6507 47.4106 68.8888C51.1369 71.746 54.8631 74.6825 58.5894 77.5396C61.6021 72.6984 64.6148 67.8571 67.5482 62.9365C70.4024 58.1746 71.433 53.1746 67.3897 48.7301C64.6941 45.7936 60.0164 46.1904 57.3209 48.7301C52.4054 53.1746 47.5692 57.619 42.6537 62.1428C46.3799 65 50.1062 67.9365 53.8325 70.7936C59.1443 63.8095 63.5841 56.3492 67.2311 48.3333C70.006 42.1428 64.1391 34.6825 57.4794 38.5714C52.1675 41.6666 47.4106 45.6349 42.6537 49.6031C46.3799 52.4603 50.1062 55.3968 53.8325 58.2539C58.6687 51.6666 62.3156 44.4444 65.0112 36.746C67.1518 30.7142 59.6993 25.7142 54.546 28.6507C47.3313 32.7777 41.5437 38.492 37.0247 45.3968C32.6642 52.0634 43.2087 60.4761 48.2034 54.0476C54.3081 46.2698 60.0164 38.2539 65.1698 29.8412C68.9753 23.8095 61.5228 16.3492 55.4974 20.0793C51.7711 22.3809 48.4413 25.1587 45.7457 28.5714C43.2879 31.5873 42.8123 35.7142 45.7457 38.6507C48.362 41.2698 53.1982 41.5079 55.8145 38.6507C58.6687 35.5555 61.4435 31.9047 64.6941 29.1269C63.0292 29.8412 61.3642 30.5555 59.62 31.1904C59.8579 31.1904 60.0164 31.1111 60.2543 31.1111C58.193 29.9206 56.1316 28.7301 54.0703 27.5396C54.1496 27.619 54.2289 27.7777 54.2289 27.8571C53.991 26.0317 53.7532 24.2063 53.5153 22.3809C53.436 22.5396 53.436 22.619 53.3568 22.7777C55.6559 21.0317 57.9551 19.2857 60.2543 17.5396C60.175 17.5396 60.0957 17.5396 59.9372 17.5396C50.8197 17.5396 50.8197 31.8253 60.0164 31.9047Z" fill="#FF8212"/>
<path d="M65.804 20.1588C56.6865 21.6667 50.1061 31.9048 46.142 39.4445C43.05 45.3175 49.7097 53.5715 55.8937 49.2064C58.9857 47.0635 61.9984 44.9207 65.0904 42.7778C66.5175 41.7461 67.9446 40.7937 69.3717 39.7619C70.1645 39.2064 71.0366 38.6508 71.8294 38.0159C73.1772 37.1429 73.4943 36.9048 72.7015 37.381C70.878 37.1429 69.0545 36.9048 67.2311 36.6667C67.4689 36.8254 67.7067 36.9048 67.9446 37.0635C67.0725 36.1905 66.2004 35.3175 65.4076 34.5238C65.5661 34.7619 65.6454 35.0794 65.804 35.3175C65.4868 34.127 65.1697 32.9365 64.8526 31.7461C65.1697 34.5238 62.3948 38.0953 61.1263 40.5556C59.3821 43.9683 57.5586 47.2223 55.5766 50.5556C50.9782 58.4921 63.2669 65.7143 67.8653 57.7778C70.6402 52.9365 73.3358 48.0159 75.7935 43.0159C78.2512 38.0159 81.0261 31.7461 77.1413 26.6667C73.0186 21.2699 67.231 23.9683 62.7913 27.1429C58.1136 30.3969 53.3567 33.7302 48.6791 36.9842C51.9296 40.2381 55.1802 43.4921 58.4307 46.7461C60.5714 42.6191 64.3769 34.8413 69.5302 34.0477C73.3358 33.4127 75.4764 28.7302 74.525 25.2381C73.4943 21.1111 69.6095 19.5238 65.804 20.1588Z" fill="#FF8017"/>
<path d="M81.6606 42.6984C74.7631 38.9682 70.244 44.5238 66.5178 49.6032C63.4258 53.8095 60.8095 58.4127 59.7788 63.6508C58.986 67.4603 60.8887 71.3492 64.7735 72.4603C68.262 73.4127 72.781 71.2698 73.5738 67.4603C74.1288 64.8412 75.0009 62.6984 76.428 60.3968C77.2208 59.2063 78.0136 58.0159 78.8857 56.8254C79.1236 56.4285 79.4407 56.1111 79.7578 55.7143C80.7885 54.6825 80.6299 54.6032 79.3614 55.4762C77.5379 55.2381 75.7145 55 73.891 54.7619C74.1288 54.8412 74.2874 55 74.5252 55.0793C82.5327 59.4444 89.7474 47.1428 81.6606 42.6984Z" fill="#FF8017"/>
<path d="M89.1925 69.2063C87.6068 59.6825 83.3256 51.1904 77.2209 43.7301C74.7631 40.7142 69.6891 41.1904 67.1521 43.7301C64.2186 46.6666 64.6943 50.7936 67.1521 53.8095C71.6711 59.365 74.2875 65.9523 75.4767 73.0158C76.1109 76.8253 80.7886 78.9682 84.277 78.0158C88.2411 76.9047 89.8267 73.0952 89.1925 69.2063Z" fill="#FF8017"/>
<path d="M83.7218 54.365C84.6731 50.7935 85.5453 47.2221 86.4966 43.6507C87.448 39.9999 85.3074 35.7142 81.5019 34.8412C77.7756 33.9682 73.7322 35.9523 72.7016 39.8412C71.7502 43.4126 70.8781 46.984 69.9267 50.5555C68.9753 54.2062 71.1159 58.492 74.9215 59.365C78.6477 60.238 82.6911 58.2539 83.7218 54.365Z" fill="#FF8017"/>
<path d="M52.9605 33.0951C51.692 29.5237 49.3928 27.7776 45.9837 30.3173C40.3547 34.4443 35.1221 39.2062 29.8894 43.73C30.4444 44.2856 30.9994 44.8411 31.5544 45.3967C38.9276 36.2697 47.0144 27.7776 55.6561 19.9205C55.1011 19.365 54.5461 18.8094 53.9912 18.2538C47.0144 24.8411 39.9583 31.4284 32.1093 37.0634C32.585 37.6983 33.0607 38.3332 33.5364 38.9681C37.9762 33.5713 42.6538 28.5713 47.7279 23.8094C47.1729 23.2538 46.6179 22.6983 46.063 22.1427C42.8124 26.0316 39.1654 29.4443 35.1221 32.5396C33.9328 33.4126 34.9635 35.3967 36.3113 34.603C37.342 34.0475 38.2933 33.4919 39.324 32.857C40.6718 32.1427 39.4826 30.0792 38.1348 30.7935C37.1041 31.3491 36.1527 31.9046 35.1221 32.5396C35.5185 33.2538 35.9149 33.8888 36.3113 34.603C40.5132 31.4284 44.3188 27.857 47.7279 23.8094C48.6793 22.6189 47.1729 21.0316 46.063 22.1427C41.0682 26.9046 36.3113 31.984 31.8715 37.3015C31.0787 38.2538 32.1093 39.9999 33.2986 39.2062C41.3061 33.4919 48.5207 26.8253 55.6561 20.0792C56.766 19.0475 55.1011 17.3808 53.9912 18.4126C45.2701 26.111 37.2627 34.6824 29.8894 43.73C28.9381 44.9205 30.3651 46.4284 31.5544 45.3967C34.4085 43.0157 37.1834 40.5554 40.0375 38.1745C41.3853 37.0634 42.7331 35.9523 44.0809 34.8411C45.9044 33.3332 49.3928 30.0792 50.6613 33.6507C51.137 35.1586 53.4362 34.603 52.9605 33.0951Z" fill="#FF9933"/>
<path d="M44.8738 35.3174C46.3009 31.8254 45.0324 28.4127 42.5747 25.873C40.5926 23.7301 36.47 23.0159 33.9329 24.7619C30.6031 27.1428 27.3525 29.6032 24.2605 32.2222C27.5904 35.5555 30.9995 38.9682 34.3293 42.3016C39.1655 37.0635 44.081 31.9047 48.9172 26.6666C55.2598 19.8412 45.8252 10.7143 38.8484 16.5873C33.8537 20.7936 28.8589 25 23.8641 29.2063C27.194 32.5397 30.6031 35.9524 33.9329 39.2857C38.1349 34.3651 42.7332 29.7619 47.6487 25.5555C44.3189 22.2222 40.9097 18.8095 37.5799 15.4762C34.4086 18.4127 30.8409 20.7143 26.9561 22.619C29.8103 26.3492 32.7437 30.0793 35.5979 33.8095C38.1349 31.0317 40.5926 28.2539 43.1296 25.4762C49.3929 18.492 40.1169 9.76188 33.0608 15.3968C28.1453 19.2857 23.2299 23.1746 18.3144 27.1428C12.0511 32.1428 20.3757 43.0952 26.9561 38.3333C32.1887 34.6032 36.8664 30.4762 40.989 25.5555C46.8559 18.5714 37.7385 9.12696 30.9202 15.4762C26.3219 19.6825 21.6442 23.9682 17.0459 28.1746C20.3757 31.5079 23.7848 34.9206 27.1147 38.2539C30.6031 34.2063 34.0915 30.1587 37.5799 26.1111C42.7332 20.1587 36.2321 10.6349 28.9382 14.9206C24.3398 17.619 20.0586 20.9524 16.4909 24.8412C11.179 30.5555 18.0765 40.7143 25.1326 36.0317C29.8103 32.9365 34.2501 29.3651 38.1349 25.3174C44.636 18.5714 35.0429 9.52379 28.0661 15.2381C24.4191 18.1746 20.7721 21.1111 17.1252 24.127C10.624 29.3651 18.9486 39.127 25.7669 35.3174C29.8896 33.0952 33.5365 30.1587 36.5492 26.5873C42.4954 19.6825 33.2987 10.1587 26.4804 16.5079C22.6749 20.0793 18.8694 23.5714 14.9845 27.1428C18.3144 30.4762 21.7235 33.8889 25.0534 37.2222C29.3346 33.0159 33.6158 28.8889 37.8177 24.6825C44.4774 18.1746 34.5672 8.65077 27.7489 14.6032C25.8462 16.2698 23.9434 17.8571 22.0406 19.5238C19.1072 22.0635 19.4243 27.0635 22.0406 29.6032C24.9741 32.5397 29.176 32.1428 32.1094 29.6032C34.805 27.3016 37.4213 25.0793 40.1169 22.7778C36.7871 19.4444 33.378 16.0317 30.0481 12.6984C26.4011 16.4285 22.437 19.9206 18.3144 23.1746C11.8133 28.2539 20.1379 38.4127 26.9561 34.3651C30.0481 32.5397 32.4266 30.1587 34.2501 27.0635C39.007 19.0476 27.1147 12.4603 21.9614 19.8412C13.716 31.4285 7.6906 44.6031 4.12291 58.4127C2.06158 66.3492 12.8439 70.7936 17.1252 63.8889C21.8028 56.4285 25.0534 48.1746 26.7976 39.5238C28.5418 30.6349 15.4602 26.746 13.0025 35.7143C10.4655 45 8.95911 54.4444 8.16629 64.0476C7.53203 71.9841 20.6928 73.8889 22.1992 65.9524C23.8641 57.0635 24.6569 48.0952 24.1812 39.0476C23.8641 32.619 13.9539 28.492 10.8619 35.4762C7.05634 44.2063 4.67788 52.9365 3.7265 62.4603C3.40937 65.9524 6.73921 69.127 9.91049 69.4444C13.5575 69.9206 16.4909 67.7778 17.7594 64.3651C20.8514 55.7143 23.3884 46.9047 25.529 37.9365C27.8282 28.8889 15.0638 25.6349 11.8925 34.127C9.03839 41.8254 6.18424 49.5238 3.33009 57.2222C0.475939 64.8412 12.6061 69.8412 16.3323 62.7778C20.8514 54.3651 24.3398 45.3968 26.5597 36.0317C28.4625 28.1746 17.8387 23.5714 13.5575 30.5555C8.64198 38.492 4.67788 46.8254 1.34804 55.6349C-1.26826 62.6984 8.48342 67.1428 13.2403 62.619C19.1072 57.0635 22.2785 49.4444 22.2785 41.4285C22.2785 33.3333 10.5447 31.8254 8.24557 39.5238C6.8185 44.6032 5.54999 49.8412 4.75717 55.2381C4.20219 58.7301 5.39142 62.2222 8.87983 63.6508C12.0511 64.9206 16.0945 63.8889 17.7594 60.7143C21.7235 53.492 24.4984 45.7143 25.9255 37.619C27.4318 28.5714 15.381 25.1587 12.1304 33.8095C6.73921 48.3333 4.28147 63.8095 4.67788 79.2857C4.75717 82.7778 7.29419 85.873 10.8619 86.2698C14.0332 86.6666 18.1558 84.6825 18.7108 81.1905C19.345 77.1428 19.7415 73.1746 19.7415 69.127C14.9845 69.127 10.2276 69.127 5.4707 69.127C5.54999 77.8571 6.97706 86.5079 9.83121 94.7619C12.8439 103.413 25.6083 100 23.6263 90.9524C21.6442 81.9841 19.6622 73.0952 17.7594 64.127C15.9359 56.3492 3.09224 57.9365 3.64722 66.0317C4.12291 74.127 4.67788 82.2222 5.15358 90.3174C9.91049 90.3174 14.6674 90.3174 19.4243 90.3174C18.6315 82.3016 18.4729 74.2857 18.8694 66.1905C19.345 56.9841 5.07429 57.0635 4.5986 66.1905C4.20219 72.8571 3.88506 79.5238 3.48865 86.1111C3.01296 94.0476 15.9359 95.9524 17.5216 88.0158C18.9486 80.4762 18.8694 73.0952 17.0459 65.6349C15.8566 60.7936 8.48342 58.1746 5.15358 62.4603C-0.316881 69.3651 -1.34755 77.1428 2.22014 85.1587C4.75717 90.873 13.9539 89.0476 15.2224 83.492C16.5702 77.7777 16.4909 72.2222 15.0638 66.5079C13.0025 59.0476 0.000247344 60.2381 1.03091 68.4127C1.90301 75.6349 2.77512 82.8571 3.64722 90.1587C4.12291 93.9682 6.58065 97.3016 10.7826 97.3016C14.6674 97.3016 17.8387 94.0476 17.918 90.1587C17.918 88.3333 17.918 86.5079 17.9973 84.6031C13.5575 85.7936 9.11767 86.9841 4.67788 88.1746C7.37347 94.5238 10.0691 100.794 12.7646 107.143C16.8873 104.762 21.01 102.302 25.0534 99.9206C22.8335 96.5079 20.6136 93.1746 18.3144 89.7619C14.1124 83.3333 2.53727 87.2222 5.31214 95.2381C7.29419 101.111 9.91049 106.587 13.4782 111.667C17.8387 118.016 28.9382 114.365 26.4804 106.19C25.2119 101.825 23.8641 97.4603 22.5956 93.0952C18.2351 94.9206 13.8746 96.746 9.59337 98.5714C14.5088 105.714 19.345 112.857 24.2605 120C27.9868 117.143 31.713 114.206 35.4393 111.349C32.1094 108.571 29.0967 105.476 26.4804 102.063C21.4857 95.6349 11.0997 103.889 15.3017 110.714C19.345 117.222 24.102 123.254 29.6517 128.651C35.2807 134.048 45.6667 126.825 40.8305 120C38.5313 116.746 36.2321 113.413 33.9329 110.159C30.2067 113.016 26.4804 115.952 22.7542 118.809C28.7796 125.317 35.4393 131.111 42.4954 136.508C45.2703 138.651 49.7893 137.222 51.6921 134.683C53.912 131.667 53.4363 128.095 51.1371 125.317C47.8073 121.349 43.6846 118.016 39.0863 115.635C32.1887 112.063 24.102 121.19 30.4445 126.825C35.915 131.746 41.8611 135.873 48.5208 138.889C51.7714 140.397 55.4976 140.079 57.7175 137.063C59.7789 134.286 59.7789 130.159 57.1625 127.698C57.0833 127.619 57.004 127.54 56.8454 127.46C55.1012 125.794 52.3264 124.762 49.8686 125.635C44.2396 127.698 41.9404 134.206 46.5388 138.809C49.7893 142.063 56.7661 142.698 61.1266 143.571C64.0601 144.206 67.7863 143.254 69.2134 140.317C72.3847 133.571 76.0317 127.143 79.9958 120.873C84.277 114.127 74.0496 105.873 68.817 112.222C66.4385 115.079 64.0601 117.936 61.6816 120.794C55.894 127.778 65.17 137.46 71.7504 130.873C73.6532 128.968 75.556 127.063 77.538 125.159C73.5739 122.857 69.6098 120.556 65.6457 118.175C65.4079 119.286 65.2493 119.841 64.4565 120.714C58.0347 127.302 67.8656 137.063 74.5253 130.794C76.1902 129.206 77.8551 127.698 79.5201 126.111C76.6659 126.508 73.7325 126.825 70.8783 127.222C70.9576 127.302 71.0369 127.302 71.1955 127.381C70.0855 124.683 68.9756 121.984 67.9449 119.286C67.8656 119.444 67.8656 119.524 67.7863 119.683C68.4206 118.651 68.9756 117.619 69.6098 116.508C69.4513 116.587 69.372 116.667 69.2134 116.825C71.5126 116.19 73.8118 115.635 76.1902 115C76.0317 114.921 75.9524 114.921 75.7938 114.841C77.4587 116.508 79.1237 118.175 80.7886 119.841C80.7093 119.603 80.7093 119.444 80.63 119.206C80.3922 121.032 80.1543 122.857 79.9165 124.683C78.5687 125.794 78.4894 125.873 79.5994 125C80.075 124.683 80.4715 124.365 80.8679 123.889C81.8985 122.778 82.3742 121.429 83.0085 120.079C78.648 120.635 74.2875 121.19 70.0062 121.746C70.0855 121.825 70.0855 121.905 70.1648 121.984C70.5612 119.127 70.8783 116.19 71.2747 113.333C71.1955 113.413 71.1162 113.571 70.9576 113.651C72.6225 112.936 74.2875 112.222 76.0317 111.587C75.8731 111.587 75.7938 111.587 75.6353 111.587C77.9344 113.333 80.2336 115.079 82.5328 116.825C82.4535 116.587 82.3742 116.349 82.3742 116.19C82.3742 117.46 82.3742 118.73 82.3742 120C83.722 115.556 85.2284 111.508 85.8626 106.825C86.4176 101.984 86.1798 97.3809 85.3869 92.619C84.5148 87.2222 76.9038 85.873 73.4946 89.4444C69.8477 93.3333 66.2007 97.1428 62.5537 101.032C66.5178 103.333 70.4819 105.635 74.446 108.016C76.1109 97.7777 77.4587 87.5397 78.4894 77.2222C79.4408 67.619 80.8679 57.7778 76.4281 48.8095C74.6839 45.3968 69.8477 44.3651 66.6764 46.2698C61.1266 49.5238 56.5283 53.8889 52.2471 58.5714C50.265 60.7143 48.3623 62.8571 46.3009 65C44.8738 66.5079 42.1783 70.2381 40.0376 70.6349C41.3062 70.6349 42.5747 70.6349 43.8432 70.6349C43.6053 70.5555 43.3675 70.4762 43.1296 70.3968C44.1603 71.0317 45.191 71.5873 46.3009 72.2222C46.7766 75.6349 47.173 76.5873 47.4902 75.0793C47.6487 74.4444 47.8866 73.8095 48.1244 73.1746C48.5208 71.9047 48.9172 70.6349 49.3136 69.4444C50.1857 66.6666 51.1371 63.9682 52.0092 61.1904C53.8327 55.7143 55.5769 50.1587 57.4004 44.6825C59.3824 38.5714 52.1678 33.6508 46.9352 36.5873C39.9584 40.5555 33.4572 45.2381 27.4318 50.4762C30.7617 50.4762 34.1708 50.4762 37.5006 50.4762C37.2628 51.6666 37.4213 52.3809 38.1349 52.619C38.2142 52.6984 38.2142 52.619 38.2142 52.4603C38.2934 52.4603 40.1169 49.5238 40.1169 49.5238C41.7026 47.3016 43.2882 45 44.8738 42.7778C48.2037 38.0952 51.5335 33.3333 54.8634 28.6508C56.9247 25.7936 55.6562 21.4285 53.0399 19.4444C50.0272 17.2222 46.4595 17.619 43.6846 20C42.0197 21.4285 40.3548 22.8571 38.6106 24.2857C41.9404 27.619 45.3495 31.0317 48.6794 34.3651C53.1192 29.0476 57.4797 23.8095 61.9195 18.492C66.28 13.2539 62.3159 4.52379 54.9427 6.58728C49.4722 8.09522 44.8738 10.7143 40.5926 14.3651C35.0429 19.0476 40.989 28.2539 47.5694 26.2698C52.0885 24.9206 55.9733 22.619 59.2239 19.2857C63.188 15.2381 60.5717 6.34918 54.1498 7.06347C48.7587 7.69839 43.7639 9.20633 39.3241 12.4603C31.9509 18.0158 38.0556 28.5714 46.5388 24.7619C50.3443 23.0159 54.0706 20.1587 57.0833 16.6666C61.8402 11.1111 57.2418 3.49204 50.1065 4.76188C44.081 5.87299 38.6899 8.88887 34.3293 13.1746C28.3039 19.127 35.915 27.7778 42.9711 24.3651C47.8073 22.0635 52.2471 18.8889 56.1319 15.1587C62.2366 9.28569 54.5462 0.476169 47.4902 3.96823C43.2882 6.03172 39.2448 8.25395 35.36 10.7143C37.7385 14.8412 40.1962 18.9682 42.5747 23.0159C44.3189 21.8254 46.0631 20.7143 47.8073 19.5238C55.4976 14.4444 48.8379 3.01585 40.5926 7.14283C38.452 8.25395 36.3114 9.36506 34.1708 10.3968C27.1147 14.0476 32.0302 26.3492 39.6412 23.4127C42.5747 22.3016 45.0324 20.9524 47.2523 18.5714C52.5642 12.6984 45.8252 3.17458 38.6106 7.38093C36.9456 8.33331 35.2014 9.36506 33.5365 10.3174C26.7183 14.2857 31.2373 26.0317 39.007 23.3333C42.7332 22.0635 45.9045 20.2381 48.6001 17.3809C54.0706 11.746 46.9352 1.50791 39.9584 6.19045C38.0556 7.4603 36.2321 8.65077 34.3293 9.92061C27.9868 14.127 31.7923 25.9524 39.7998 22.9365C42.5747 21.9047 45.191 20.7143 47.5694 18.9682C55.1805 13.5714 48.7587 3.01585 40.3548 6.66664C36.7078 8.25395 33.6158 10.3968 30.5238 12.8571C24.2605 17.9365 32.5059 28.7301 39.1655 24.0476C39.9584 23.492 40.7512 22.9365 41.544 22.3809C48.9965 17.2222 42.4954 5.55553 34.3293 10.0793C30.0481 12.4603 26.1633 15.2381 22.2785 18.2539C15.7774 23.4127 24.102 33.3333 30.9202 29.4444C35.8357 26.9841 40.0376 23.6508 43.6846 19.8412C49.4722 13.7301 42.2575 5.23807 35.0429 8.65077C30.5238 10.7936 26.4011 13.8095 22.992 17.4603C17.5216 23.2539 24.4984 33.0158 31.6338 28.6508C35.5979 26.2698 39.3241 23.4127 42.8125 20.3174C49.71 14.127 39.562 4.20633 32.7437 10.2381C29.731 12.8571 26.5597 15.3968 23.3091 17.6984C17.1252 22.1428 20.5343 33.3333 28.7796 30.7143C31.3166 29.9206 33.5365 28.7301 35.2014 26.6666C31.8716 23.3333 28.4625 19.9206 25.1326 16.5873C21.0893 21.746 16.9666 26.9841 12.9232 32.1428C10.5447 35.1587 9.98978 39.2857 12.9232 42.2222C15.4602 44.7619 20.5343 45.2381 22.992 42.2222C25.6876 39.0476 27.9868 35.7143 29.731 31.9047C31.0788 28.9682 30.9995 25.6349 28.621 23.2539C26.5597 21.1905 22.437 20.2381 19.9793 22.1428C15.5395 25.5555 11.9718 29.4444 9.67265 34.6031C6.02568 43.0158 16.4909 49.3651 21.9614 41.8254C24.4984 38.4127 26.7183 34.8412 28.8589 31.1111C32.6644 24.2857 23.1506 16.1111 17.6801 22.4603C13.9539 26.746 11.3376 31.2698 9.19696 36.4285C6.73922 42.1428 14.7467 47.619 19.6622 44.4444C20.455 43.8889 21.2478 43.4127 22.0406 42.8571C18.7901 39.6032 15.5395 36.3492 12.289 33.0952C7.37347 43.1746 4.44004 53.7301 3.48865 64.9206C2.77512 72.8571 16.0152 74.7619 17.5216 66.8254C17.918 64.4444 18.3937 62.1428 18.7901 59.7619C20.2964 50.7936 7.84916 47.1428 4.91573 56.0317C4.28147 58.0158 3.56794 60 2.93368 62.0635C7.53203 63.3333 12.1304 64.6031 16.7287 65.873C17.0459 64.127 17.2837 62.3809 17.6008 60.5555C19.0279 51.5873 6.73922 47.8571 3.80578 56.746C3.17153 58.7301 2.93368 60.6349 2.77512 62.6984C2.22014 71.0317 14.4296 71.9841 16.808 64.6032C17.5216 62.2222 17.918 59.8412 18.0765 57.4603C18.6315 49.2857 6.10496 47.9365 4.04363 55.5555C3.56794 57.1428 3.17153 58.8095 2.69583 60.3968C7.29419 61.6666 11.8925 62.9365 16.4909 64.2063C16.808 62.7778 17.1252 61.3492 17.4423 60C19.5036 51.0317 6.50137 47.4603 3.64722 56.1905C3.01296 58.2539 2.69583 60.4762 2.69583 62.619C7.45275 62.619 12.2097 62.619 16.9666 62.619C16.9666 61.3492 16.9666 61.2698 17.2837 60C12.6854 58.7301 8.08701 57.4603 3.48865 56.1905C2.93368 58.492 2.37871 60.873 1.82373 63.1746C6.50137 63.8095 11.179 64.4444 15.8566 65.0793C15.8566 63.3333 15.9359 61.746 16.3323 60.0793C11.734 59.4444 7.05634 58.8095 2.37871 58.1746C2.06158 61.1111 1.74445 64.127 1.5066 67.0635C0.793067 74.127 11.734 76.9047 14.7467 70.7143C19.5829 60.873 24.7362 50.1587 34.6465 44.6032C31.0788 42.5397 27.5111 40.4762 23.9434 38.4127C25.0534 47.1428 22.0406 55.1587 18.9486 63.1746C17.6801 66.4285 20.0586 70.3968 23.0713 71.5873C26.639 73.0158 29.8103 71.5873 31.9509 68.6508C38.3727 59.9206 44.8738 51.1905 51.2957 42.4603C47.173 40.0793 43.0504 37.619 39.007 35.2381C31.713 50.7143 23.6263 65.6349 14.9845 80.2381C19.345 82.0635 23.7056 83.8889 27.9868 85.7143C33.2987 72.5397 38.2142 59.127 42.7332 45.6349C43.9225 41.9841 41.3062 37.8571 37.7385 36.8254C33.7744 35.7143 30.286 38.1746 28.9382 41.8254C24.5777 53.6508 20.455 65.5555 16.5702 77.5397C14.1124 85.0793 26.2426 90.4762 29.5724 83.0158C34.0122 73.1746 36.7078 63.1746 37.7385 52.4603C38.3727 45.4762 27.4318 42.619 24.4191 48.8889C18.8694 60.3968 13.5575 72.2222 13.7953 85.2381C13.9539 92.3016 23.3884 94.9206 27.1147 88.8095C32.5059 79.9206 37.8177 70.9524 43.2089 62.0635C38.8484 60.2381 34.4879 58.4127 30.2067 56.5873C27.7489 62.9365 25.2912 69.2857 22.8335 75.7143C20.6136 81.5079 17.5216 87.5397 16.5702 93.7301C15.381 101.349 25.1326 106.587 29.5724 99.2063C36.3114 88.1746 43.0504 77.0635 49.7893 66.0317C45.4288 64.2063 41.0683 62.3809 36.7871 60.5555C33.7744 72.8571 28.3039 84.2063 22.5956 95.4762C18.4729 103.651 30.5238 110.794 34.8843 102.698C40.0376 93.1746 45.191 83.6508 52.7228 75.7143C48.7587 73.4127 44.7946 71.1111 40.8305 68.7301C37.1835 79.0476 32.6644 88.8889 27.2732 98.4127C22.7542 106.429 35.0429 113.651 39.562 105.635C45.5874 95.0793 50.5029 83.9682 54.5462 72.5397C56.9247 65.7143 47.3316 60.5555 42.6539 65.5555C34.3293 74.3651 28.3832 84.8412 22.5956 95.3968C26.7183 97.7777 30.8409 100.238 34.8843 102.619C41.0683 90.2381 47.2523 77.7778 50.5029 64.2857C52.4056 56.4285 41.7026 51.746 37.5006 58.8095C30.7617 69.8412 24.0227 80.9524 17.2837 91.9841C21.6442 93.8095 26.0047 95.6349 30.286 97.4603C31.2373 91.2698 34.2501 85.2381 36.5492 79.4444C39.007 73.0952 41.4647 66.746 43.9225 60.3174C46.9352 52.619 34.9636 48.0952 30.9202 54.8412C25.529 63.7301 20.2172 72.6984 14.826 81.5873C19.2658 82.7778 23.7056 83.9682 28.1453 85.1587C27.9868 74.7619 32.3473 65.2381 36.7871 56.0317C32.3473 54.8412 27.9075 53.6508 23.4677 52.4603C22.6749 60.4762 20.6136 68.492 17.2837 75.7936C21.6442 77.619 26.0047 79.4444 30.286 81.2698C34.1708 69.2857 38.2934 57.3809 42.6539 45.5555C38.0556 44.2857 33.4572 43.0158 28.8589 41.746C24.3398 55.2381 19.4243 68.6508 14.1124 81.9047C11.0204 89.6031 23.1506 94.127 27.1147 87.3809C35.8357 72.7778 43.8432 57.7778 51.1371 42.4603C55.1805 34.0476 44.2396 27.9365 38.8484 35.2381C32.4266 43.9682 25.9255 52.6984 19.5036 61.4285C23.8641 63.2539 28.2246 65.0793 32.5059 66.9047C35.9943 57.7778 39.2448 48.2539 37.9763 38.4127C37.3421 33.1746 32.4266 29.3651 27.2732 32.2222C15.3017 39.127 8.40414 51.4285 2.45799 63.492C6.89778 64.6825 11.3376 65.873 15.7774 67.0635C16.0945 64.127 16.4116 61.1111 16.6495 58.1746C17.4423 50.0793 4.51932 48.5714 2.61655 56.2698C1.90301 59.2063 1.5066 62.1428 1.58589 65.1587C1.74445 73.0158 13.716 75.1587 15.6188 67.0635C16.1738 64.7619 16.7287 62.3809 17.2837 60.0793C19.345 51.1111 5.9464 47.3809 3.48865 56.2698C2.93368 58.3333 2.61655 60.4762 2.69583 62.6984C2.8544 71.9047 16.8873 71.9047 16.9666 62.6984C16.9666 61.3492 17.0459 61.3492 17.4423 60.0793C12.8439 58.8095 8.24557 57.5397 3.64722 56.2698C3.33009 57.6984 3.01296 59.127 2.69583 60.4762C0.634503 69.4444 14.0332 73.1746 16.4909 64.2857C16.9666 62.619 17.363 60.9524 17.8387 59.3651C13.1611 58.7301 8.48342 58.0952 3.80578 57.4603C3.7265 58.6508 3.40937 59.6825 3.01296 60.873C7.6906 61.5079 12.3682 62.1428 17.0459 62.7778C17.0459 62.0635 17.2837 61.3492 17.6008 60.6349C13.0025 59.3651 8.40414 58.0952 3.80578 56.8254C3.48865 58.5714 3.25081 60.3174 2.93368 62.1428C1.42732 71.1111 13.716 74.8412 16.7287 65.9524C17.363 63.9682 18.0765 61.9841 18.7108 59.9206C14.1124 58.6508 9.51408 57.3809 4.91573 56.1111C4.51932 58.492 4.04363 60.7936 3.64722 63.1746C8.32485 63.8095 13.0025 64.4444 17.6801 65.0793C18.3937 56.5079 20.7721 48.1746 24.5777 40.4762C27.5111 34.5238 21.2478 26.4285 14.826 30.7143C14.0332 31.2698 13.2403 31.746 12.4475 32.3016C15.9359 35 19.4243 37.6984 22.9127 40.3968C24.102 37.619 25.7669 35 27.7489 32.6984C24.0227 29.8412 20.2964 26.9047 16.5702 24.0476C14.5088 27.7778 12.2097 31.3492 9.67265 34.7619C13.7953 37.1428 17.918 39.6032 21.9614 41.9841C23.1506 39.2063 24.6569 36.5079 27.1147 34.6825C23.8641 31.4285 20.6136 28.1746 17.363 24.9206C16.0945 27.5397 14.6674 30.0793 12.8439 32.3016C16.1738 35.6349 19.5829 39.0476 22.9127 42.3809C26.9561 37.2222 31.0788 31.9841 35.1222 26.8254C37.5006 23.8095 38.0556 19.6825 35.1222 16.746C32.6644 14.2857 27.4318 13.7301 25.0534 16.746C24.2605 17.619 24.1812 17.7778 24.8948 17.1428C26.7183 21.5079 28.5418 25.873 30.3652 30.1587C34.7258 26.9047 38.8484 23.7301 42.8125 20.2381C39.4827 16.9047 36.0735 13.492 32.7437 10.1587C30.1274 12.4603 27.4318 14.4444 24.4191 16.2698C27.2732 20 30.2067 23.7301 33.0608 27.4603C35.7564 24.6032 38.6899 22.5397 42.2575 20.9524C39.4034 17.2222 36.47 13.492 33.6158 9.76188C30.7617 12.8571 27.6697 15.2381 24.0227 17.3016C26.8768 21.0317 29.8103 24.7619 32.6644 28.492C35.5186 26.2698 38.6106 24.2857 41.7818 22.5397C39.4034 18.4127 36.9456 14.2857 34.5672 10.2381C33.7744 10.7936 32.9815 11.3492 32.1887 11.9047C35.0429 15.6349 37.9763 19.3651 40.8305 23.0952C42.8918 21.4285 45.3495 20.1587 47.728 19.127C45.3495 15 42.8918 10.873 40.5133 6.82537C39.0863 7.77776 37.7385 8.73014 36.1528 9.36506C37.9763 13.7301 39.7998 18.0952 41.6233 22.3809C43.5261 21.1111 45.3495 19.9206 47.2523 18.6508C44.3982 14.9206 41.4647 11.1905 38.6106 7.46029C37.5799 8.49204 36.7078 9.20633 35.2807 9.68252C37.1042 14.0476 38.9277 18.4127 40.7512 22.6984C42.4161 21.746 44.1603 20.7143 45.8252 19.7619C42.9711 16.0317 40.0376 12.3016 37.1835 8.57141C36.9456 8.88887 36.3907 9.60315 35.915 9.76188C37.7385 14.127 39.562 18.492 41.3854 22.7778C43.5261 21.6666 45.6667 20.5555 47.8073 19.5238C45.4288 15.3968 42.9711 11.2698 40.5926 7.2222C38.8484 8.41268 37.1042 9.52379 35.36 10.7143C27.7489 15.6349 34.7258 27.9365 42.5747 23.0159C46.5388 20.5555 50.5821 18.2539 54.7048 16.2698C51.8507 12.5397 48.9172 8.8095 46.0631 5.07934C42.9711 8.01585 39.6412 10.2381 35.8357 12.0635C38.6899 15.7936 41.6233 19.5238 44.4774 23.2539C47.173 20.5555 50.1857 19.2063 53.9913 18.5714C51.6921 14.6032 49.3929 10.6349 47.0145 6.66664C44.7153 9.36506 42.1783 11.1905 38.9277 12.619C41.3062 16.746 43.7639 20.873 46.1424 24.9206C48.4415 23.1746 50.8993 21.746 53.7534 21.4285C52.0885 17.3809 50.4236 13.3333 48.6794 9.20633C47.0937 10.7936 45.5081 11.8254 43.2882 12.4603C45.5874 16.4285 47.8866 20.3968 50.265 24.3651C52.6435 22.3809 55.3391 21.1111 58.3518 20.3174C56.0526 16.3492 53.7534 12.3809 51.375 8.41268C46.9352 13.7301 42.5747 18.9682 38.1349 24.2857C32.268 31.3492 41.1476 40.3174 48.2037 34.3651C49.8686 32.9365 51.5335 31.5079 53.2777 30.0793C49.5515 27.2222 45.8252 24.2857 42.099 21.4285C37.3421 28.1746 32.5851 34.9206 27.8282 41.6666C24.0227 47.0635 20.6928 55.4762 26.9561 60.5555C30.1274 63.0952 33.8537 63.3333 37.0249 60.5555C42.1783 56.1111 47.728 52.2222 53.6741 48.8889C50.1857 46.1905 46.6973 43.492 43.2089 40.7936C40.5133 49.0476 37.8177 57.3016 35.1222 65.5555C33.9329 69.2857 32.1887 73.1746 33.0608 77.1428C33.8537 80.9524 36.6285 83.9682 40.5926 84.4444C47.728 85.3174 54.2291 76.9841 58.5896 72.3016C63.188 67.3016 67.6278 62.0635 73.4946 58.5714C70.2441 57.6984 66.9935 56.8254 63.743 56.0317C65.2493 59.127 65.0115 62.6984 64.8529 66.1111C64.6151 70.3174 64.1394 74.6032 63.743 78.8095C62.8709 87.3016 61.7609 95.7936 60.3338 104.286C59.8581 107.46 60.651 110.635 63.5844 112.381C66.28 113.968 70.0855 113.571 72.2261 111.27C75.8731 107.381 79.5201 103.571 83.167 99.6825C79.2029 98.6508 75.2388 97.619 71.2747 96.5079C71.909 100.397 71.7504 104.603 70.8783 108.413C69.9269 112.46 67.2314 116.508 68.4999 120.794C69.4513 123.968 72.1468 125.794 75.3974 126.032C77.538 126.19 79.7579 125.238 81.1057 123.651C83.167 121.27 83.9599 117.778 82.2157 115C82.1364 114.921 82.1364 114.841 82.0571 114.762C78.5687 109.127 71.2747 110.952 69.0548 116.429C68.9756 116.667 68.8963 116.825 68.817 117.063C69.4513 116.032 70.0062 115 70.6405 113.889C67.7863 116.587 64.2186 122.302 68.7377 126.825C73.2568 131.349 79.5994 128.333 81.5814 123.095C82.6913 120.079 80.7886 116.587 78.3308 115C78.2516 114.921 78.1723 114.921 78.0137 114.841C75.2388 113.095 71.6712 113.809 69.372 115.952C67.7071 117.54 66.0421 119.048 64.3772 120.635C67.7071 123.968 71.1162 127.381 74.446 130.714C76.9038 128.175 78.5687 125.317 79.3615 121.905C80.8679 115.079 72.7018 109.762 67.4692 114.921C65.5664 116.825 63.6637 118.73 61.6816 120.635C65.0115 123.968 68.4206 127.381 71.7504 130.714C74.1289 127.857 76.5074 125 78.8858 122.143C75.1596 119.286 71.4333 116.349 67.7071 113.492C63.743 119.762 60.096 126.27 56.9247 132.936C59.6203 131.825 62.3159 130.714 65.0115 129.682C61.2059 128.889 57.1625 128.254 53.5949 126.746C55.0219 127.857 56.449 128.968 57.8761 130C57.7175 129.762 57.559 129.603 57.4004 129.365C57.6382 131.19 57.8761 133.016 58.1139 134.841C58.1932 134.682 58.2725 134.524 58.2725 134.365C56.6076 136.032 54.9427 137.698 53.2777 139.365C53.4363 139.286 53.5949 139.286 53.7534 139.206C51.4543 138.571 49.1551 138.016 46.7766 137.381C46.8559 137.46 46.9352 137.54 47.0937 137.619C49.9479 133.889 52.8813 130.159 55.7355 126.429C50.1857 123.889 45.1117 120.635 40.5926 116.587C37.7385 120.317 34.805 124.048 31.9509 127.778C35.5979 129.683 38.452 132.063 41.0683 135.238C43.9225 131.508 46.8559 127.778 49.71 124.048C43.6053 119.444 38.0556 114.206 32.823 108.651C27.4318 102.778 16.8873 110.556 21.6442 117.302C23.9434 120.556 26.2426 123.889 28.5418 127.143C32.268 124.286 35.9943 121.349 39.7205 118.492C35.0429 113.968 31.0788 109.048 27.6697 103.492C23.9434 106.349 20.2172 109.286 16.4909 112.143C19.1865 115.556 22.1199 118.651 25.4498 121.429C28.1453 123.73 31.8716 124.365 34.805 121.984C37.4213 119.921 38.6899 115.794 36.6285 112.778C31.713 105.635 26.8768 98.492 21.9614 91.3492C17.6008 85 6.50137 88.6508 8.95911 96.8254C10.2276 101.19 11.5754 105.556 12.8439 109.921C17.2044 108.095 21.5649 106.27 25.8462 104.444C22.992 100.397 20.7721 96.1111 19.1072 91.4285C14.7467 93.2539 10.3862 95.0793 6.10496 96.9047C8.32485 100.317 10.5448 103.651 12.8439 107.063C17.9973 114.921 28.7003 108.175 25.1326 99.8412C22.437 93.492 19.7415 87.2222 17.0459 80.873C14.1124 74.0476 3.80578 77.9365 3.7265 84.4444C3.7265 86.2698 3.7265 88.0952 3.64722 90C8.40414 90 13.1611 90 17.918 90C17.0459 82.7778 16.1738 75.5555 15.3017 68.2539C10.624 69.0476 5.9464 69.6825 1.26876 70.3174C2.14086 73.492 2.22014 76.5079 1.42732 79.6825C5.78783 79.127 10.1483 78.5714 14.4296 78.0158C13.716 76.4285 14.0332 73.9682 15.1431 72.619C11.179 71.5873 7.21491 70.5555 3.25081 69.4444C4.44004 74.3651 4.75717 79.2857 3.7265 84.2857C8.40414 84.9206 13.0818 85.5555 17.7594 86.1904C18.1558 79.5238 18.4729 72.8571 18.8694 66.2698C14.1124 66.2698 9.35552 66.2698 4.5986 66.2698C4.20219 74.2857 4.36076 82.3809 5.15358 90.3968C5.54999 94.2063 8.16629 97.5397 12.289 97.5397C15.9359 97.5397 19.6622 94.2857 19.4243 90.3968C18.9486 82.3016 18.3937 74.2063 17.918 66.1111C13.2403 66.746 8.5627 67.3809 3.88506 68.0158C5.86711 76.9841 7.84916 85.873 9.75193 94.8412C14.3503 93.5714 18.9486 92.3016 23.547 91.0317C21.0893 83.8889 19.8207 76.746 19.7415 69.2063C19.6622 60 5.4707 60 5.4707 69.2063C5.4707 71.9841 5.39142 74.7619 4.91573 77.4603C9.59337 78.0952 14.271 78.7301 18.9486 79.3651C18.5522 65 20.9307 51.1111 25.9255 37.6984C21.3271 36.4285 16.7287 35.1587 12.1304 33.8889C10.9412 40.873 8.80055 47.3809 5.4707 53.5714C9.83121 55.3968 14.1917 57.2222 18.4729 59.0476C19.345 53.7301 20.5343 48.492 22.1199 43.2539C17.4423 42.619 12.7646 41.9841 8.08701 41.3492C8.08701 45.7936 6.42209 49.4444 3.25081 52.4603C7.21491 54.7619 11.179 57.0635 15.1431 59.4444C17.9973 51.8254 21.6442 44.6825 25.9255 37.7778C21.5649 35.9524 17.2044 34.127 12.9232 32.3016C10.9412 40.4762 8.08701 48.1746 4.12291 55.6349C8.48342 57.4603 12.8439 59.2857 17.1252 61.1111C19.9793 53.4127 22.8335 45.7143 25.6876 38.0159C21.0893 36.6666 16.4909 35.3968 11.8925 34.127C9.75193 43.0952 7.13562 51.9047 4.12291 60.5555C8.80055 61.1905 13.4782 61.8254 18.1558 62.4603C18.7901 55.7143 20.6136 48.8889 23.3091 42.6984C18.8694 41.5079 14.4296 40.3174 9.98978 39.127C10.3862 46.9047 9.98978 54.6032 8.48342 62.2222C13.1611 62.8571 17.8387 63.492 22.5163 64.127C23.1506 55.7936 24.6569 47.619 26.7976 39.6032C22.1992 38.3333 17.6008 37.0635 13.0025 35.7936C11.4961 43.3333 8.87983 50.2381 4.75717 56.746C9.11767 58.5714 13.4782 60.3968 17.7594 62.2222C21.01 49.5238 26.5597 37.7778 34.0915 26.9841C30.1274 24.6032 26.084 22.2222 21.9614 19.7619C21.2478 20.9524 20.9307 21.2698 19.7415 21.9047C22.5956 25.6349 25.529 29.3651 28.3832 33.0952C32.5059 29.8412 36.3907 26.3492 40.1169 22.619C46.618 15.9524 36.9456 6.58728 30.0481 12.5397C27.3525 14.8412 24.7362 17.0635 22.0406 19.3651C25.3705 22.6984 28.7796 26.1111 32.1094 29.4444C34.0122 27.7778 35.915 26.1905 37.8177 24.5238C34.4879 21.1905 31.0788 17.7778 27.7489 14.4444C23.4677 18.6508 19.1865 22.7778 14.9053 26.9841C8.32485 33.4127 18.2351 43.3333 24.9741 37.0635C28.7796 33.492 32.5851 30 36.47 26.4285C33.1401 23.0952 29.731 19.6825 26.4011 16.3492C24.102 19.0476 21.6442 21.1111 18.5522 22.8571C21.4064 26.5873 24.3398 30.3174 27.194 34.0476C30.8409 31.1111 34.4879 28.1746 38.1349 25.1587C34.805 21.8254 31.3959 18.4127 28.0661 15.0793C24.9741 18.2539 21.6442 21.1111 17.918 23.5714C20.7721 27.3016 23.7056 31.0317 26.5597 34.7619C29.4139 31.6666 32.5059 29.127 36.1528 27.0635C33.2987 23.3333 30.3652 19.6032 27.5111 15.873C24.0227 19.9206 20.5343 23.9682 17.0459 28.0158C11.0204 34.9206 20.2172 44.3651 27.1147 38.0952C31.713 33.8889 36.3907 29.6032 40.989 25.3968C37.6592 22.0635 34.2501 18.6508 30.9202 15.3174C27.5904 19.2857 23.9434 22.8571 19.8207 25.873C22.6749 29.6032 25.6083 33.3333 28.4625 37.0635C33.2987 33.2539 38.2142 29.3651 43.1296 25.3968C39.7998 22.0635 36.3907 18.6508 33.0608 15.3174C30.5238 18.0952 28.0661 20.873 25.529 23.6508C20.0586 29.7619 26.8768 38.492 34.1708 34.8412C39.0863 32.3809 43.6053 29.2063 47.6487 25.4762C54.467 19.2063 44.4774 9.44442 37.5799 15.3968C32.6644 19.6032 28.1453 24.2063 23.8641 29.127C17.8387 36.1111 26.9561 45.1587 33.9329 39.2063C38.9277 35 43.9225 30.7936 48.9172 26.5873C45.5874 23.2539 42.1783 19.8412 38.8484 16.5079C34.0122 21.746 29.0967 26.9841 24.2605 32.2222C17.918 39.0476 27.4318 48.2539 34.3293 42.3016C36.5492 40.4762 38.7691 38.7301 41.0683 37.0635C38.2142 36.6666 35.2807 36.3492 32.4266 35.9524C32.6644 36.1905 32.823 36.4285 33.0608 36.6666C32.4266 35.6349 31.8716 34.6032 31.2373 33.492C31.3166 33.8095 31.3166 34.127 31.3959 34.4444C31.3959 33.1746 31.3959 31.9047 31.3959 30.6349C31.2373 30.9524 31.1581 31.1905 30.9995 31.5079C29.4931 35.0793 32.5851 39.3651 35.9943 40.3174C40.1962 41.4285 43.3675 38.8889 44.8738 35.3174Z" fill="#FF9933"/>
<path d="M55.0217 77.0635C49.0756 82.7777 44.0808 89.5238 40.5924 97.0635C38.9275 100.556 39.641 104.762 43.1294 106.825C46.3007 108.651 51.1369 107.698 52.8811 104.286C57.083 95.9523 61.6021 87.7777 66.5969 79.9206C70.7988 73.1746 60.73 65 55.4181 71.2698C49.1548 78.6508 43.5258 86.5079 38.5311 94.7619C42.8916 96.5873 47.2521 98.4127 51.5333 100.238C55.4181 90.873 61.6021 82.6984 69.1339 76.0317C65.4076 73.1746 61.6814 70.2381 57.9551 67.3809C50.9783 78.5714 43.7637 89.5238 36.2319 100.317C34.012 103.492 35.6769 108.254 38.7689 110.079C42.3366 112.143 46.3007 110.714 48.5206 107.54C55.1803 98.0952 61.6021 88.5714 67.7861 78.8095C72.7809 70.9524 60.6507 64.127 55.4974 71.5873C48.917 81.1111 42.2573 90.6349 35.6769 100.159C39.7996 102.54 43.9222 105 47.9656 107.381C50.899 101.667 53.8325 95.9524 56.7659 90.3174C61.0471 82.0635 49.7098 75.6349 44.4772 83.0952C39.7996 89.8412 35.4391 96.746 31.475 103.889C35.5976 106.27 39.7203 108.73 43.7637 111.111C47.0142 105.079 50.6612 99.3651 54.7046 93.9682C50.5819 91.5873 46.4593 89.127 42.4159 86.746C38.9275 93.4127 35.4391 100.079 31.9507 106.667C27.5901 114.921 39.0067 121.27 44.2394 113.889C49.1548 106.984 54.4667 100.397 60.175 94.0476C56.8452 94.0476 53.4361 94.0476 50.1062 94.0476C50.1062 94.0476 50.1062 94.0476 50.0269 94.127C49.7098 92.9365 49.3927 91.746 49.0756 90.5555C49.3927 93.7301 46.6178 98.1746 45.5079 101.111C43.843 105.317 42.2573 109.524 40.5924 113.73C39.3239 116.984 41.7023 120.952 44.7151 122.143C48.2827 123.571 51.3747 122.143 53.5946 119.206C58.2723 113.095 62.8706 106.905 67.5483 100.794C63.4256 98.4127 59.3029 95.9524 55.2596 93.5714C51.5333 101.349 47.4899 108.968 43.1294 116.429C47.2521 118.809 51.3747 121.27 55.4181 123.651C58.3516 118.413 61.84 113.73 66.0419 109.365C62.0778 107.063 58.1137 104.762 54.1496 102.381C52.1676 107.54 49.3927 112.619 45.9836 116.984C49.7098 119.841 53.4361 122.778 57.1623 125.635C61.1264 119.365 65.8041 113.809 71.1952 108.73C67.469 105.873 63.7427 102.936 60.0165 100.079C56.7659 106.429 53.2775 112.698 49.6305 118.809C53.7532 121.19 57.8759 123.651 61.9192 126.032C65.0112 119.524 68.7375 113.254 73.2566 107.54C69.2925 105.238 65.3284 102.936 61.3643 100.556C60.8093 104.603 59.5408 107.936 57.2416 111.27C61.3643 113.651 65.4869 116.111 69.5303 118.492C74.3665 110.159 79.1234 101.825 82.929 93.0158C86.1002 85.6349 90.9364 75.5555 88.003 67.4603C87.2102 65.1587 85.7038 63.1746 83.6425 61.8254C82.8497 61.3492 82.0569 60.9524 81.1848 60.6349C80.4712 60.3968 78.1721 60.3174 77.6171 59.8412C79.2027 61.1111 77.9342 58.3333 77.8549 57.8571C77.4585 56.1904 77.2207 54.5238 76.8243 52.9365C74.6836 43.9682 69.7682 35.7936 63.1878 29.4444C58.6687 25.1587 51.1369 28.2539 50.9783 34.5238C50.8198 40.873 51.6919 47.2222 53.3568 53.3333C55.101 59.6031 66.0419 60.6349 67.1519 53.3333C68.3411 44.8412 69.1339 36.2698 69.1339 27.6984C69.1339 19.9206 56.3695 17.619 55.101 25.7936C53.6739 35.2381 51.1369 44.4444 47.5692 53.2539C44.5565 60.7143 57.0038 65.9524 60.5715 58.7301C65.1698 49.5238 68.4996 39.8412 70.2439 29.6825C71.7502 20.7143 59.3822 16.9841 56.4488 25.873C55.0217 30.3174 53.5154 34.6825 52.0883 39.127C49.5513 46.8254 61.285 51.6666 65.0905 44.6031C69.5303 36.5079 69.451 26.5873 64.377 18.7301C62.3157 22.3016 60.2543 25.873 58.193 29.4444C64.377 29.2063 69.2132 24.4444 69.0546 18.0952C69.2132 12.5396 64.2977 7.93648 58.8272 6.98409C55.656 6.42854 52.4847 7.30155 50.7405 10.2381C49.2341 12.8571 49.472 16.8254 51.8504 18.8889C56.0524 22.5396 60.9679 24.6031 66.5969 24.4444C72.7016 24.2063 76.1107 16.746 71.6709 12.2222C68.7375 9.28568 65.4077 6.82536 61.6814 5.07933C59.8579 9.44441 58.0344 13.8095 56.2109 18.0952C59.6201 19.365 63.1085 19.2857 66.5969 18.2539C71.2745 16.8254 74.208 9.84124 69.7682 6.34917C66.9933 4.12695 64.1391 1.03171 60.4922 0.238063C56.6866 -0.555588 52.8018 0.238063 49.5513 2.38092C42.6537 7.06346 47.0935 16.746 55.0217 15.3968C59.6993 14.6031 64.2977 16.5079 67.6275 19.7619C74.1287 26.2698 84.2768 16.1111 77.6964 9.68251C75.3972 7.46029 73.098 6.11108 70.0853 4.9206C68.8168 9.52378 67.5483 14.127 66.2798 18.7301C67.3897 19.0476 68.4997 19.2857 69.6096 19.6031C75.3179 21.0317 81.3433 14.4444 77.6964 9.12695C75.9522 6.5079 73.9701 4.52378 71.1952 2.93648C69.3718 7.30156 67.5483 11.6666 65.7248 15.9523C71.116 17.0635 75.4765 21.2698 75.7936 26.9841C80.4712 26.3492 85.1489 25.7143 89.8265 25.0793C88.0823 20.5555 86.1795 16.1111 83.8011 11.8254C80.5505 15.0793 77.3 18.3333 74.0494 21.5873C80.7884 25.7936 85.0696 30.0793 86.8931 38.0158C88.7958 45.9524 88.7166 54.5238 88.3994 62.619C87.7652 78.7301 81.819 93.4127 70.0853 104.603C73.8115 107.46 77.5378 110.397 81.264 113.254C82.2947 111.27 83.4047 109.603 85.2281 108.254C81.9776 105 78.727 101.746 75.4765 98.492C73.4944 102.54 71.116 106.111 68.024 109.365C71.7502 112.222 75.4765 115.159 79.2027 118.016C81.1055 115 83.4047 112.619 86.1002 110.397C82.374 107.54 78.6477 104.603 74.9215 101.746C74.2872 103.254 73.5737 104.762 72.6223 106.032C76.3486 108.889 80.0748 111.825 83.8011 114.683C84.7525 112.936 85.9417 111.746 87.448 110.476C83.7218 107.619 79.9955 104.683 76.2693 101.825C74.7629 104.603 73.1773 107.222 71.116 109.603C75.0801 111.905 79.0441 114.206 83.0082 116.587C83.3254 115.556 84.0389 114.444 84.911 113.809C81.4226 111.111 77.9342 108.413 74.4458 105.714C73.653 107.698 72.4637 109.365 70.9574 110.794C74.6836 113.651 78.4099 116.587 82.1361 119.444C83.0082 117.857 83.8804 116.825 85.2281 115.635C81.264 113.333 77.2999 111.032 73.3358 108.651C72.9394 109.603 72.3845 110.635 71.7502 111.349C75.4765 114.206 79.2027 117.143 82.929 120C84.2768 117.46 85.8624 115.635 88.1616 113.889C84.4353 111.032 80.7091 108.095 76.9828 105.238C75.635 107.222 74.2872 109.206 73.0187 111.19C68.5789 117.857 79.1234 126.27 84.1975 119.841C90.3022 112.063 96.4862 104.206 99.4989 94.6825C100.926 90.1587 101.56 85.3174 102.194 80.6349C102.987 75.3968 103.701 70.1587 103.384 64.8412C102.829 54.365 98.389 45.7936 92.9978 37.1428C88.003 29.0476 82.6911 20.9523 75.7936 14.365C72.4637 11.1904 66.9933 11.8254 64.6148 15.7936C60.73 22.2222 64.6148 27.6984 67.8654 33.2539C70.8781 38.5714 72.6223 44.365 73.4151 50.3968C77.7756 48.5714 82.1361 46.746 86.4174 44.9206C81.9776 38.492 78.0928 31.5873 75.0801 24.365C73.7323 21.1111 71.0367 18.6508 67.2311 19.2857C63.822 19.8412 60.9679 22.6984 61.0471 26.2698C61.2057 38.0158 64.5356 49.365 70.7988 59.2857C74.6044 65.3174 83.8803 62.8571 84.1182 55.7143C84.2768 50.7143 83.0875 46.2698 81.1055 41.746C77.8549 34.365 65.4869 39.6031 68.1032 47.2222C70.7195 55.0793 74.0494 62.6984 78.172 69.9206C80.0748 73.2539 84.5939 74.4444 87.9237 72.4603C91.5707 70.3174 92.0464 66.2698 90.4608 62.6984C87.6859 56.2698 84.911 49.9206 82.1361 43.492C79.282 36.9047 68.4997 40.3174 68.8168 47.0635C69.0546 52.3016 69.2925 57.5397 69.5303 62.7777C74.2872 62.7777 79.0441 62.7777 83.8011 62.7777C83.0875 52.2222 80.6298 42.3016 76.4278 32.5397C74.1287 27.3016 66.6762 28.492 64.1391 32.5397C60.9679 37.4603 58.4308 42.6984 56.3695 48.0952C60.73 47.5397 65.0905 46.9841 69.3718 46.4285C65.6455 37.6984 59.3029 30.1587 51.5333 24.7619C47.1728 21.746 41.3852 21.1904 37.4211 25.2381C33.7741 29.0476 33.2984 35.873 33.3777 40.7936C33.3777 45.7936 39.5617 50.2381 44.0808 46.9841C50.5026 42.3016 54.2289 35.9524 54.7046 27.9365C50.0269 28.5714 45.3493 29.2063 40.6717 29.8412C41.6231 33.8889 40.9888 38.0158 42.9708 41.8254C44.8736 45.5555 48.4413 48.6508 52.7225 49.127C62.1571 50.4762 67.3897 38.8095 71.9088 32.4603C67.7861 32.4603 63.6634 32.4603 59.6201 32.4603C62.3157 37.7777 64.932 43.0158 67.6275 48.3333C69.9267 52.8571 72.543 57.3809 77.3792 59.5238C82.1361 61.6666 88.003 60.873 91.65 56.9841C95.9312 52.3809 94.0284 47.3016 93.632 41.8254C89.1922 43.0158 84.7525 44.2063 80.3127 45.3968C82.5326 49.9206 84.7525 54.4444 86.9723 58.8889C90.3022 65.5555 100.054 61.9047 100.292 55.3174C100.45 50.6349 100.609 45.9524 100.767 41.2698C96.0898 41.9047 91.4121 42.5397 86.7345 43.1746C87.2895 47.1428 87.8445 51.1111 88.3994 55C89.5094 63.1746 102.194 60.873 102.432 53.0952C102.512 48.8095 102.67 44.5238 102.749 40.1587C97.9925 40.1587 93.2356 40.1587 88.4787 40.1587C89.5887 48.5714 91.1743 57.1428 91.4914 65.6349C91.8086 73.492 88.8751 80.7143 85.7038 87.7777C84.1182 91.2698 84.6732 95.4762 88.2409 97.5397C91.2536 99.2857 96.4069 98.492 97.9925 95C101.798 86.5079 105.445 77.9365 105.762 68.492C106.079 59.127 103.859 49.4444 102.67 40.1587C102.194 36.3492 99.7367 33.0158 95.5348 33.0158C91.5707 33.0158 88.4787 36.2698 88.3994 40.1587C88.3201 44.4444 88.1616 48.7301 88.0823 53.0952C92.7599 52.4603 97.4376 51.8254 102.115 51.1904C101.56 47.2222 101.005 43.2539 100.45 39.365C99.9746 35.873 95.6934 33.8095 92.6014 34.2857C89.0337 34.8412 86.5759 37.6984 86.4174 41.2698C86.2588 45.9524 86.1002 50.6349 85.9417 55.3174C90.3815 54.127 94.8213 52.9365 99.2611 51.746C97.0412 47.2222 94.8213 42.6984 92.6014 38.2539C89.5094 31.9841 78.8063 34.8412 79.282 41.8254C79.4406 43.6508 79.7577 45.4762 80.0748 47.3016C80.3919 49.127 80.0748 50.1587 82.2154 46.5873C82.929 45.3968 84.1975 48.492 82.5326 45.9524C81.8983 45 81.3433 43.9682 80.8676 42.9365C77.8549 37.0635 74.9215 31.1111 71.9088 25.2381C69.2925 20.0793 62.4742 21.1904 59.6201 25.2381C58.3516 26.9841 57.083 28.8095 55.8145 30.5555C55.101 31.5079 54.3875 32.5397 53.6739 33.492C52.7225 34.8412 50.5819 36.0317 53.6739 35.6349C56.3695 35.3174 55.5767 36.1111 55.3388 33.4127C55.1803 30.9523 55.0217 28.5714 54.4667 26.1904C52.4847 18.0158 40.9095 20.3174 40.4338 28.0952C40.2753 30.6349 39.0067 33.2539 36.8661 34.7619C40.4338 36.8254 44.0015 38.8889 47.5692 40.9523C47.5692 39.6825 47.5692 38.4127 47.7278 37.1428C47.8071 36.6666 47.8863 36.1904 48.0449 35.7143C48.4413 34.127 48.5206 33.8889 48.2827 34.8412C47.2521 35.4762 46.2214 36.0317 45.1115 36.6666C45.4286 36.5873 45.825 36.5079 46.1421 36.4285C44.8736 36.4285 43.6051 36.4285 42.3366 36.4285C45.4286 36.9047 48.8377 41.0317 50.8198 43.4127C53.5154 46.4285 55.4974 50 57.083 53.7301C59.7786 60 68.1825 56.9841 70.0853 52.0635C71.7502 47.7777 73.9701 43.7301 76.4278 39.9206C72.3052 39.9206 68.1825 39.9206 64.1391 39.9206C67.3104 47.1428 69.0546 55.0793 69.6096 62.9365C70.1646 72.0635 84.356 72.1428 83.8804 62.9365C83.6425 57.6984 83.4047 52.4603 83.1668 47.2222C78.727 48.4127 74.2872 49.6031 69.8474 50.7936C72.6223 57.2222 75.3972 63.5714 78.172 70C82.2947 67.619 86.4174 65.1587 90.4608 62.7777C86.9723 56.5873 84.0389 50.2381 81.819 43.492C77.4585 45.3174 73.098 47.1428 68.8168 48.9682C69.7682 51.1111 69.9267 53.4127 69.8474 55.7936C74.2872 54.6031 78.727 53.4127 83.1668 52.2222C78.0928 44.3651 75.3972 35.7143 75.3179 26.4285C70.6403 27.0635 65.9626 27.6984 61.285 28.3333C64.7734 36.746 68.8961 44.7619 74.1287 52.3016C78.9649 59.3651 88.2409 54.6825 87.1309 46.8254C86.4967 41.9047 85.1489 37.2222 83.2461 32.619C82.2947 30.3968 81.3433 28.2539 80.1541 26.1904C79.5991 25.1587 78.9649 24.2063 78.3306 23.2539C78.0928 22.9365 77.9342 22.619 77.6964 22.2222C76.9828 20.5555 76.745 20.7936 76.9035 23.0952C73.1773 23.5714 69.451 24.0476 65.7248 24.5238C71.3538 29.8412 75.5557 36.1904 79.6784 42.6984C83.9596 49.6031 88.7958 56.5079 89.1922 64.9206C89.5887 73.0158 88.3201 81.8254 86.1795 89.6031C84.0389 97.3016 79.0442 103.73 74.208 109.841C77.9342 112.698 81.6605 115.635 85.3867 118.492C86.7345 116.508 88.0823 114.524 89.3508 112.54C91.3329 109.603 90.2229 105.317 87.5273 103.333C84.4353 101.032 81.0262 101.667 78.172 103.889C75.0801 106.349 72.543 109.444 70.7195 112.936C69.0546 116.032 69.6889 120 72.543 122.143C75.1593 124.048 79.6784 124.444 81.8983 121.587C84.1975 118.651 85.7831 116.032 87.1309 112.54C89.9851 105.397 79.9955 101.27 75.2386 105.556C73.098 107.46 71.2745 109.762 69.9267 112.302C66.0419 119.286 75.3972 126.905 81.1055 120.952C84.356 117.54 86.5759 113.889 88.2409 109.524C90.4608 103.889 82.6118 97.8571 77.7756 101.429C73.653 104.444 70.9574 107.936 69.2925 112.778C66.9933 119.365 76.6657 125.159 81.1848 119.762C84.0389 116.429 86.4967 112.936 88.558 109.048C92.5221 101.587 83.4839 95.3968 77.3792 100.397C74.9215 102.381 73.0187 104.762 71.5124 107.54C67.7068 114.286 77.5378 122.778 82.6911 116.19C84.5146 113.889 86.1002 111.746 87.2895 109.048C90.54 101.587 82.5326 95.0793 76.1107 100.397C72.4637 103.413 69.5303 106.984 66.9933 110.952C62.7121 117.778 72.6223 125.476 78.172 119.603C82.0569 115.476 85.3867 110.873 87.8445 105.794C90.6986 100 84.4353 91.5079 78.0928 96.0317C74.2872 98.7301 71.1952 101.905 68.9753 106.111C65.3284 113.254 74.1287 120.556 80.1541 114.762C94.9798 100.556 102.194 81.5079 102.67 61.1904C102.908 51.4285 102.749 40.7143 99.816 31.3492C96.5655 21.2698 89.9851 14.9206 81.1848 9.36505C74.9215 5.39679 68.1032 13.0952 71.4331 19.127C73.1773 22.3016 74.7629 25.5555 76.0314 28.9682C77.3 32.3016 80.1541 34.6825 83.8804 34.0476C87.2102 33.5714 90.3022 30.6349 90.0643 27.0635C89.4301 15.3174 81.264 4.76187 69.5303 2.30156C61.9192 0.714254 56.6866 11.2698 64.0599 15.3174C64.7734 15.7143 65.0905 15.7936 65.4869 16.3492C68.1825 12.8571 70.8781 9.36505 73.5737 5.87298C72.4638 5.55552 71.3538 5.31743 70.2439 4.99997C61.0471 2.69838 57.9551 15.4762 66.359 18.8095C66.8347 18.9682 67.3104 19.5238 67.6275 19.8412C70.9574 16.5079 74.3665 13.0952 77.6964 9.76187C70.561 2.61902 61.0471 0.0793329 51.2162 1.746C53.0397 6.11108 54.8631 10.4762 56.6866 14.7619C58.5101 13.5714 57.0038 14.2063 57.7173 14.365C56.6866 13.7301 55.656 13.1746 54.546 12.5397C56.2109 13.8889 57.8759 15.1587 59.5408 16.5079C60.5714 12.5396 61.6021 8.5714 62.7121 4.60314C61.0471 5.1587 61.6021 5.07933 59.9372 4.44441C52.4847 1.746 47.0935 14.127 54.4667 17.4603C57.2416 18.7301 59.4615 20.1587 61.6021 22.3016C63.267 18.2539 64.932 14.2063 66.6762 10.0793C64.932 10.1587 63.4256 9.9206 61.9985 8.73013C59.6993 12.6984 57.4002 16.6666 55.0217 20.6349C58.193 21.1904 54.1496 17.8571 55.2596 16.9841C56.2902 16.3492 57.3209 15.7936 58.4308 15.1587C58.4308 15.2381 58.4308 15.2381 58.5101 15.3174C53.3568 15.5555 49.2341 21.4285 52.3261 26.1111C54.6253 29.6825 55.101 33.7301 53.0397 37.5397C57.4002 39.365 61.7607 41.1904 66.0419 43.0158C67.469 38.5714 68.9753 34.2063 70.4024 29.7619C65.8041 28.5714 61.2057 27.3016 56.6074 26.0317C55.101 35 52.4847 43.5714 48.362 51.6666C52.7225 53.492 57.083 55.3174 61.3643 57.1428C64.932 48.2539 67.469 39.127 68.8961 29.6825C64.2184 29.0476 59.5408 28.4127 54.8631 27.7777C54.8631 35.0793 54.3875 42.3809 53.4361 49.6825C58.0344 49.6825 62.6328 49.6825 67.2311 49.6825C65.8041 44.6825 65.2491 39.8412 65.3284 34.6825C61.285 36.3492 57.2416 38.0158 53.1189 39.7619C58.4308 44.8412 61.84 51.0317 63.3463 58.1746C64.6148 64.4444 67.0726 73.492 75.0008 74.0476C78.0928 74.2857 73.8908 72.5397 74.5251 72.2222C74.6044 72.2222 74.6044 73.0158 74.5251 73.1746C73.9701 74.4444 73.8115 76.1904 73.4151 77.619C72.3052 81.3492 70.9574 85.0793 69.3718 88.6508C65.8041 96.5079 61.4436 104.048 57.1623 111.508C52.4847 119.603 64.2977 126.19 69.451 118.73C72.3845 114.524 74.2872 109.683 75.0801 104.603C75.5557 101.429 74.7629 98.2539 71.8295 96.5079C69.2925 95 65.0905 95.1587 63.1878 97.619C57.8759 104.286 53.3568 111.27 49.6305 118.968C45.6664 127.143 57.1623 134.127 61.9192 126.19C65.6455 120.079 69.0546 113.889 72.3052 107.46C75.9522 100.238 67.1519 93.1746 61.1264 98.8095C54.8631 104.683 49.3927 111.349 44.7943 118.571C40.5924 125.317 50.9783 133.73 55.9731 127.222C60.9679 120.794 64.8527 113.968 67.7861 106.349C70.4024 99.4444 60.5715 94.6031 55.8938 99.365C50.899 104.444 46.5385 110.238 43.0501 116.508C38.6896 124.603 50.8198 131.746 55.4974 123.809C59.8579 116.349 63.9013 108.73 67.6275 100.952C71.6709 92.5397 60.8093 86.5079 55.3388 93.7301C50.6612 99.8412 46.0628 106.032 41.3852 112.143C45.7457 113.968 50.1062 115.794 54.3875 117.619C56.6073 111.746 58.9065 105.952 61.1264 100.079C63.1878 94.6825 65.0905 88.6508 60.175 84.0476C57.4795 81.5079 52.7225 81.1111 50.1062 84.0476C43.6051 91.2698 37.5797 98.8095 31.9507 106.746C36.0733 109.127 40.196 111.587 44.2394 113.968C47.7278 107.302 51.2162 100.635 54.7046 94.0476C59.0651 85.7143 47.807 79.6031 42.4159 86.8254C38.2932 92.3016 34.6462 97.9365 31.475 103.968C27.1145 112.063 39.3239 119.206 43.7637 111.19C47.7278 104.048 52.0883 97.0635 56.7659 90.3968C52.6433 88.0158 48.5206 85.5555 44.4772 83.1746C41.5438 88.8889 38.6103 94.6031 35.6769 100.238C31.475 108.492 42.8123 115 47.9656 107.46C54.546 97.9365 61.2057 88.4127 67.7861 78.8889C63.6634 76.5079 59.5408 74.0476 55.4974 71.6666C49.3134 81.3492 42.8123 90.9524 36.2319 100.397C40.3545 102.778 44.4772 105.238 48.5206 107.619C56.0524 96.8254 63.267 85.7936 70.2439 74.6825C74.6836 67.5397 64.932 60.7936 59.0651 66.0317C49.5513 74.4444 42.6537 84.8412 37.8175 96.5873C34.6462 104.206 46.8557 108.809 50.8198 102.063C55.1803 94.7619 60.0165 87.8571 65.4869 81.4285C61.7607 78.5714 58.0344 75.6349 54.3082 72.7777C49.3134 80.7143 44.7943 88.8095 40.5924 97.1428C44.7151 99.5238 48.8377 101.984 52.8811 104.365C55.9731 97.8571 59.9372 92.2222 65.0905 87.2222C71.7502 80.7936 61.6021 70.7143 55.0217 77.0635Z" fill="#FF9933"/>
<path d="M60.4127 26.1111C55.8936 30.4761 51.8502 35.3174 48.2033 40.5555C43.6049 47.1428 53.9909 55.1587 59.4613 49.2063C63.4254 44.9206 67.7066 40.9523 72.5428 37.619C69.2923 34.365 66.0417 31.1111 62.7912 27.8571C60.7298 32.2222 58.1928 35.9523 54.863 39.2857C58.5892 42.1428 62.3155 45.0793 66.0417 47.9365C67.3102 45.7936 68.7373 44.6031 70.8779 43.492C67.3895 40.7936 63.9011 38.0952 60.4127 35.3968C59.382 39.4444 57.955 42.9364 55.7351 46.5079C51.3746 53.492 61.2055 60.7142 66.9138 55.1587C69.6887 52.4603 72.5428 49.6825 75.3177 46.9841C71.3536 44.6825 67.3895 42.3809 63.4254 39.9999C62.3155 45.3968 60.4127 50.3174 57.6378 55.0793C53.5152 62.1428 63.029 69.2857 68.8166 63.7301C72.5428 60.1587 76.0313 56.4285 79.2818 52.4603C75.3177 50.1587 71.3536 47.8571 67.3895 45.4761C64.3768 52.9364 60.2541 59.9206 55.5765 66.4285C50.661 73.2539 61.047 80.3968 66.7553 75.0793C71.2743 70.873 75.7934 66.6666 80.3918 62.4603C76.6655 59.6031 72.9393 56.6666 69.213 53.8095C66.9138 58.9682 64.3768 63.8888 61.5226 68.7301C56.7657 76.746 68.658 83.3333 73.8114 75.9523C76.8241 71.6666 80.1539 67.619 83.7216 63.6507C79.7575 61.3491 75.7934 59.0476 71.8293 56.6666C69.3716 63.0158 65.9624 68.8888 61.9983 74.365C57.2414 80.873 67.8652 89.1269 73.1771 83.0158C77.7755 77.7777 82.2945 72.619 86.8929 67.3809C82.9288 65.0793 78.9647 62.7777 75.0006 60.3968C74.7627 61.5079 74.6042 62.1428 73.8114 63.0158C77.5376 65.873 81.2639 68.8095 84.9901 71.6666C91.0155 62.8571 96.9617 48.8888 90.4606 38.8888C88.0028 35.0793 84.3559 32.3809 80.7089 29.7618C78.2511 27.9365 75.6348 26.1904 74.9213 23.7301C70.9572 26.0317 66.9931 28.3333 63.029 30.7142C66.5174 33.5714 70.0058 36.4285 73.4942 39.2857C79.9161 44.6031 87.9236 38.0952 84.673 30.6349C82.6117 25.873 80.5503 21.0317 78.489 16.2698C74.7627 19.1269 71.0365 22.0634 67.3102 24.9206C71.75 30.1587 76.1105 35.4761 80.5503 40.7142C83.4045 36.9841 86.3379 33.2539 89.1921 29.5238C86.655 27.8571 85.3865 25.4761 84.7523 22.5396C81.2639 25.238 77.7755 27.9365 74.287 30.6349C76.6655 31.9841 77.5376 36.4285 78.3304 38.8095C79.6782 42.9365 80.6296 47.0634 81.3431 51.2698C85.9415 49.9999 90.5399 48.7301 95.1382 47.4603C93.949 41.746 93.1562 36.0317 92.9183 30.1587C88.2407 30.7936 83.563 31.4285 78.8854 32.0634C82.0567 48.4126 83.0873 65.0793 82.136 81.746C86.5758 80.5555 91.0155 79.365 95.4553 78.1745C92.2841 72.8571 92.0462 66.6666 95.1382 61.2698C90.6984 60.0793 86.2586 58.8888 81.8188 57.6984C82.5324 65.6349 81.5017 73.492 78.2511 80.7936C82.6909 81.9841 87.1307 83.1745 91.5705 84.365C91.1741 78.6507 91.7291 72.9364 94.0283 67.619C89.6678 65.7936 85.3072 63.9682 81.026 62.1428C79.9161 64.9999 78.4097 67.619 76.6655 70.1587C81.026 70.7142 85.3865 71.2698 89.6678 71.8253C87.765 60.7936 84.9901 49.9999 81.3431 39.4444C79.2025 33.1745 69.213 32.1428 67.5481 39.4444C66.676 43.3333 66.676 46.9047 67.231 50.873C68.3409 58.0952 79.2818 57.2222 81.026 50.873C82.5324 45.1587 83.4838 39.365 83.9595 33.492C84.5937 25.3968 71.9086 23.8888 69.9265 31.5872C68.1823 38.4126 65.6453 45.5555 64.7732 52.5396C63.9011 59.365 69.6094 66.1111 72.7807 71.6666C76.0313 68.4126 79.2818 65.1587 82.5324 61.9047C78.4097 59.6031 73.4149 60.4761 70.4022 64.2857C68.9752 66.1111 68.2616 68.4126 68.3409 70.7936C68.4202 73.1745 70.1644 75.3968 70.0851 77.619C74.5249 76.4285 78.9647 75.238 83.4045 74.0476C82.136 72.3015 80.9467 70.4761 79.6782 68.7301C75.7141 63.0158 66.5174 64.9206 66.3588 72.3015C66.2796 76.3491 67.7066 79.8412 70.6401 82.619C75.0799 86.9047 82.8495 83.8095 82.8495 77.5396C82.8495 72.5396 80.471 68.4126 76.1105 65.873C70.9572 62.8571 63.584 67.9364 65.6453 73.9682C66.9931 78.0158 69.1337 81.5872 72.305 84.4444C78.0133 89.6825 88.0821 82.9365 83.4838 75.7936C81.7396 73.0952 79.6782 70.9523 76.7448 69.5238C73.8114 68.1745 70.4815 68.2539 68.1031 70.6349C65.9624 72.7777 65.1696 76.746 66.9931 79.2857C69.3716 82.6984 72.1464 85.4761 75.7141 87.619C81.7396 91.1904 89.2713 83.9682 85.4658 77.8571C83.1666 74.1269 80.471 70.4761 78.489 66.5872C78.8061 67.7777 79.1232 68.9682 79.4404 70.1587C79.4404 69.9206 79.4404 69.7618 79.4404 69.5238C78.2511 71.5872 77.0619 73.6507 75.8727 75.7142C76.0312 75.6349 76.2691 75.5555 76.4277 75.4761C73.5735 75.0793 70.6401 74.7618 67.7859 74.365C67.8652 74.5238 68.0238 74.6031 68.1031 74.7618C74.2078 81.6666 84.2766 71.5079 78.1719 64.6825C78.0926 64.5238 77.934 64.4444 77.8547 64.2857C75.6348 61.746 71.9879 61.9047 69.213 63.1745C69.0544 63.2539 68.8166 63.3333 68.658 63.4126C66.4381 64.4444 65.1696 67.2222 65.0903 69.6031C65.0111 74.9999 70.3229 80.7142 73.0185 85.0793C76.2691 81.8253 79.5197 78.5714 82.7702 75.3174C81.3431 74.4444 80.0746 73.492 79.1233 72.1428C75.8727 75.3968 72.6221 78.6507 69.3716 81.9047C70.1644 82.3015 70.5608 82.3809 71.0365 83.0158C74.7627 80.1587 78.489 77.2222 82.2152 74.365C80.8674 73.0952 79.8368 71.9047 79.2818 70.1587C75.7934 72.8571 72.305 75.5555 68.8166 78.2539C68.7373 78.0158 68.658 77.7777 68.4202 77.619C72.4636 75.9523 76.5069 74.2857 80.6296 72.5396C80.3918 72.9365 80.3918 72.8571 80.5503 72.3015C76.1105 73.492 71.6707 74.6825 67.231 75.873C68.4995 77.619 69.6887 79.4444 70.9572 81.1904C75.0006 86.9841 83.9595 84.9206 84.2766 77.619C84.3559 76.0317 84.1973 74.5238 83.7216 72.9365C83.3252 71.6666 82.5324 70.7142 82.6909 69.365C82.3738 70.5555 82.0567 71.746 81.7396 72.9365C81.5017 73.2539 81.2639 73.5714 81.026 73.8095C79.8368 74.1269 78.6476 74.4444 77.4583 74.7618C77.6962 74.7618 78.0133 74.7618 78.2511 74.7618C77.0619 74.4444 75.8727 74.1269 74.6835 73.8095C74.9213 73.9682 75.1591 74.0476 75.397 74.2063C81.581 77.619 88.7957 70.7142 85.1487 64.4444C83.6423 61.746 82.0567 59.1269 80.5503 56.4285C79.9953 55.4761 79.5197 54.1269 78.8061 53.3333C78.4097 52.5396 78.489 52.7777 79.044 54.0476C79.2025 53.3333 79.4404 52.619 79.5989 51.9047C81.026 46.4285 82.4531 40.873 83.8009 35.3968C79.1232 34.7618 74.4456 34.1269 69.768 33.492C69.3716 38.0952 68.4995 42.619 67.3102 47.0634C71.9086 47.0634 76.5069 47.0634 81.1053 47.0634C80.9467 45.7936 81.1053 44.5238 81.4224 43.2539C76.8241 43.2539 72.2257 43.2539 67.6274 43.2539C71.2743 53.8095 73.9699 64.6825 75.952 75.6349C77.0619 82.2222 85.8622 81.9047 88.9542 77.3015C91.412 73.7301 93.2354 69.9206 94.7418 65.873C97.5959 58.4126 84.9108 52.9364 81.7396 60.3968C78.4097 68.0158 76.7448 75.9523 77.2998 84.365C77.7755 90.7142 87.3686 94.9999 90.6191 87.9365C94.9796 78.4126 97.1203 68.1745 96.1689 57.6984C95.6139 51.0317 86.5758 47.4603 82.8495 54.1269C77.379 63.8888 77.4583 75.7936 83.1666 85.4761C86.8929 91.746 96.0896 88.8095 96.486 81.9047C97.5167 63.9682 96.1689 46.1111 92.7597 28.492C91.2534 20.5555 78.4097 22.3809 78.7268 30.3968C79.044 37.4603 79.9161 44.5238 81.4224 51.4285C82.2152 55.238 86.655 57.3809 90.2227 56.4285C94.2661 55.3174 95.8517 51.4285 95.2175 47.619C93.5526 37.9365 90.9363 23.6507 81.581 18.4126C76.0313 15.3174 69.6887 20.3968 71.1158 26.5079C72.6221 33.0952 76.5862 38.3333 82.136 41.9841C85.0694 43.9682 89.3506 42.8571 91.3327 40.1587C93.5526 37.1428 93.1562 33.5714 90.7777 30.7936C86.3379 25.5555 81.9774 20.238 77.5376 14.9999C75.3177 12.3015 70.7194 12.3809 68.1823 14.4444C65.1696 16.8253 64.9318 20.3174 66.3588 23.6507C68.4202 28.4126 70.4815 33.2539 72.5428 38.0158C76.2691 35.1587 79.9953 32.2222 83.7216 29.365C80.2332 26.5079 76.7448 23.6507 73.2564 20.7936C68.0238 16.5079 59.382 20.3968 61.3641 27.7777C63.5047 35.7142 70.0851 39.2063 75.8727 43.9682C78.4097 46.0317 79.5197 47.2222 79.044 50.5555C78.2511 55.7142 75.7141 60.4761 72.86 64.6825C68.2616 71.4285 78.5683 79.2063 84.0387 73.3333C86.4172 70.7142 88.1614 67.8571 88.9542 64.365C90.3813 57.8571 82.0567 51.746 77.0619 57.3809C72.1464 62.619 67.6274 67.7777 63.029 73.0158C66.7553 75.873 70.4815 78.8095 74.2078 81.6666C78.9647 75.1587 82.6117 68.0952 85.4658 60.5555C88.0821 53.8095 78.1719 48.5714 73.5735 53.5714C69.213 58.3333 65.1696 63.4126 61.4434 68.7301C65.566 71.1111 69.6887 73.5714 73.7321 75.9523C76.5862 71.1111 79.1232 66.1904 81.4224 61.0317C84.5937 53.8888 76.5069 46.5872 70.2437 52.3809C65.7246 56.6666 61.2055 60.873 56.6864 65.0793C60.4127 67.9365 64.139 70.873 67.8652 73.7301C73.3357 66.1904 77.6169 58.0158 81.1053 49.365C83.7216 42.8571 73.5735 37.0634 69.213 42.3809C65.9624 46.3491 62.474 50.0793 58.7478 53.6507C62.474 56.5079 66.2003 59.4444 69.9265 62.3015C73.2564 56.5079 75.7934 50.3174 77.1412 43.8095C78.5683 36.9841 70.4815 31.746 65.2489 36.8253C62.474 39.5238 59.6199 42.3015 56.845 44.9999C60.5713 47.8571 64.2975 50.7936 68.0238 53.6507C70.7986 49.1269 72.86 44.2857 74.1285 39.1269C75.6348 32.9364 69.1337 28.1745 63.6633 31.0317C59.4613 33.3333 56.0522 36.6666 53.6737 40.7142C49.5511 47.6984 59.1442 55.1587 64.8525 49.365C69.0544 45.1587 72.4636 40.3968 75.0006 34.9999C76.3484 32.0634 76.2691 28.7301 73.8906 26.3492C71.75 24.2063 67.7859 23.4126 65.2489 25.238C59.4613 29.2857 54.0701 33.8095 49.3132 39.0476C53.0395 41.9047 56.7657 44.8412 60.492 47.6984C63.4254 43.492 66.7553 39.7618 70.4022 36.1904C77.1412 29.8412 67.0724 19.6825 60.4127 26.1111Z" fill="#FF8017"/>
<path d="M82.6116 35.6349C82.2152 34.8413 81.8981 33.9683 81.5017 33.1746C80.8674 33.6508 80.2332 34.127 79.5989 34.6032C85.7829 39.6826 88.5578 47.6191 86.7343 55.4762C87.5271 55.4762 88.2406 55.4762 89.0335 55.4762C87.9235 49.9207 86.8136 44.2857 85.7829 38.7302C85.0694 39.0476 84.3558 39.3651 83.6423 39.6826C85.7036 43.7302 87.3685 47.9365 88.5578 52.3016C88.9542 53.8096 91.0948 53.1746 90.8569 51.6667C89.8263 45.6349 89.2713 39.6032 89.192 33.5715C88.4785 33.8095 87.6857 33.9683 86.9721 34.2064C88.7163 38.0953 90.3813 41.9842 92.1255 45.9524C92.6804 47.3016 94.5039 46.2699 94.2661 45C93.4733 40.7143 92.6804 36.508 91.9669 32.2222C91.1741 32.4603 90.4605 32.6191 89.6677 32.8572C90.6191 36.1905 91.8083 39.3651 93.2354 42.4603C93.9489 42.0635 94.5832 41.6667 95.2967 41.2699C93.7111 37.9365 92.9183 34.6032 92.7597 30.9524C91.9669 31.0318 91.1741 31.1905 90.4605 31.2699C91.3326 34.5238 92.2047 37.6984 93.0768 40.9524C93.7904 40.6349 94.5039 40.3175 95.2175 40C93.7904 37.381 92.7597 34.6826 92.2047 31.8254C91.4912 32.1429 90.7777 32.4603 90.0641 32.7778C91.8083 36.1905 92.839 39.6032 93.5525 43.4127C94.3454 43.1746 95.0589 43.0159 95.8517 42.7778C93.7111 37.6191 92.1255 32.3016 91.0948 26.8254C90.3813 27.1429 89.6677 27.4603 88.9542 27.7778C94.2661 35.3968 95.6139 44.7619 92.6012 53.4921C93.394 53.5715 94.1868 53.7302 94.9003 53.8096C95.376 49.3651 95.2175 45.0794 94.5832 40.6349C93.7904 40.873 93.0768 41.0318 92.284 41.2699C93.7111 49.2064 94.2661 57.2223 93.9489 65.3175C94.7418 65.2381 95.5346 65.0794 96.2481 65C95.7724 62.9365 95.8517 61.1905 96.486 59.2064C95.6931 59.2064 94.9796 59.2064 94.1868 59.2064C95.1382 65.2381 94.6625 71.1905 92.6804 76.9842C93.4733 77.0635 94.2661 77.2223 94.9796 77.3016C95.0589 74.4445 95.7724 71.9048 97.1202 69.4445C96.4067 69.2064 95.6139 69.0476 94.9003 68.8095C94.3454 74.2064 92.6012 79.2064 89.747 83.8096C90.4605 84.127 91.1741 84.4445 91.8876 84.7619C94.7418 71.0318 96.0103 57.0635 95.4553 43.0159C94.6625 43.0953 93.8697 43.254 93.1561 43.3334C95.7724 56.8254 98.2302 71.5873 90.1434 83.7302C90.8569 84.0476 91.5705 84.3651 92.284 84.6826C94.3454 78.254 94.9796 71.7461 94.3454 65C93.5525 65 92.7597 65 91.9669 65C92.2047 66.8254 92.4426 68.6508 92.6804 70.4762C92.839 71.9842 95.1382 72.0635 95.0589 70.4762C94.9003 65.7937 94.9796 61.1905 95.4553 56.508C94.6625 56.508 93.8697 56.508 93.0768 56.508C93.4733 60.3968 93.6318 64.2064 93.4733 68.0953C94.2661 68.0159 95.0589 67.8572 95.7724 67.7778C95.2967 65.4762 95.0589 63.1746 95.0589 60.7937C94.2661 60.7937 93.4733 60.7937 92.6804 60.7937C93.2354 65 93.2354 69.127 92.6804 73.3334C93.4733 73.3334 94.2661 73.3334 95.0589 73.3334C94.9796 71.508 95.2967 69.8413 96.0103 68.1746C95.2967 67.9365 94.5039 67.7778 93.7904 67.5397C93.9489 72.2222 92.6012 76.3492 89.8263 80.0794C90.5398 80.3175 91.3326 80.4762 92.0462 80.7143C92.0462 78.6508 92.284 76.6667 92.6012 74.6032C91.8083 74.5238 91.0155 74.3651 90.302 74.2857C90.302 76.1111 90.3813 78.0159 90.3813 79.8413C90.3813 80.9524 92.0462 81.5873 92.6012 80.4762C93.2354 79.127 93.8697 77.7778 94.5039 76.4286C93.7904 76.3492 93.0768 76.2699 92.3633 76.1111C92.7597 77.381 92.839 78.7302 92.6804 80C92.6012 81.4286 94.5832 81.508 94.9796 80.3175C95.376 79.2064 95.8517 78.0953 96.2481 76.9048C95.4553 76.8254 94.6625 76.6667 93.9489 76.5873C93.9489 78.0953 93.9489 79.6032 93.9489 81.0318C94.7418 80.9524 95.5346 80.7937 96.2481 80.7143C95.7724 80.7143 95.2175 80.7937 94.7418 80.7937C95.5346 80.873 96.3274 81.0318 97.0409 81.1111C97.0409 78.4921 97.0409 75.873 97.0409 73.1746C96.2481 73.1746 95.4553 73.1746 94.6625 73.1746C94.6625 76.6667 93.7111 79.6826 91.5705 82.4603C92.2047 82.8572 92.9183 83.254 93.5525 83.6508C94.4246 81.5873 95.2967 79.4445 96.1688 77.381C95.376 77.3016 94.5832 77.1429 93.8697 77.0635C93.7111 78.9683 93.3147 80.2381 92.4426 81.9048C93.1561 81.9842 93.8697 82.0635 94.5832 82.2222C93.3147 73.0953 95.6931 64.0476 95.1382 54.8413C94.6625 46.1905 91.9669 37.9365 89.3506 29.7619C88.6371 30.0794 87.9235 30.3968 87.21 30.7143C88.5578 33.1746 89.8263 35.6349 91.1741 38.0953C91.8876 37.6984 92.5219 37.3016 93.2354 36.9048C91.1741 33.5715 89.192 30.2381 87.1307 26.9048C86.3379 25.5556 84.3558 26.7461 85.0694 28.0953C85.8622 29.6032 86.7343 31.0318 87.5271 32.5397C88.2406 33.8889 90.302 32.6984 89.5884 31.3492C88.7956 29.8413 87.9235 28.4127 87.1307 26.9048C86.4172 27.3016 85.7829 27.6984 85.0694 28.0953C87.1307 31.4286 89.1127 34.7619 91.1741 38.0953C91.9669 39.4445 93.9489 38.254 93.2354 36.9048C91.8876 34.4445 90.6191 31.9842 89.2713 29.5238C88.6371 28.3334 86.655 29.127 87.1307 30.4762C89.9848 39.3651 92.9183 48.4127 92.9183 57.8572C92.9183 66.2699 91.1741 74.5238 92.3633 82.8572C92.5219 83.8889 94.1075 83.9683 94.5039 83.1746C95.5346 81.1905 96.0896 79.3651 96.3274 77.1429C96.4067 75.7143 94.4246 75.7143 94.0282 76.8254C93.1561 78.8889 92.284 81.0318 91.4119 83.0953C90.9362 84.2064 92.6804 85.1588 93.394 84.2857C95.931 81.0318 97.1995 77.4603 97.1995 73.3334C97.1995 71.8254 94.821 71.8254 94.821 73.3334C94.821 75.9524 94.821 78.5715 94.821 81.2699C94.821 82.6191 96.7238 82.8572 97.1202 81.5873C97.1995 81.3492 97.2788 81.1905 97.3581 80.9524C97.5166 80.5556 97.3581 80.0794 97.0409 79.7619C96.8824 79.6032 96.7238 79.4445 96.5653 79.2857C96.3274 78.9683 95.7724 78.8096 95.376 78.9683C94.1868 79.4445 93.6318 80.2381 94.0282 81.508C94.4246 82.7778 96.3274 82.5397 96.3274 81.1905C96.3274 79.6826 96.3274 78.1746 96.3274 76.7461C96.3274 75.3175 94.4246 75.2381 94.0282 76.4286C93.6318 77.5397 93.1561 78.6508 92.7597 79.8413C93.5525 79.9207 94.3454 80.0794 95.0589 80.1588C95.2175 78.4921 95.0589 77.2223 94.6625 75.635C94.4246 74.6826 92.9183 74.4445 92.5219 75.3175C91.8876 76.6667 91.2534 78.0159 90.6191 79.3651C91.3326 79.6032 92.1255 79.7619 92.839 80C92.839 78.1746 92.7597 76.2699 92.7597 74.4445C92.7597 73.1746 90.6984 72.7778 90.4605 74.127C90.0641 76.3492 89.8263 78.5715 89.8263 80.873C89.8263 82.1429 91.4119 82.381 92.0462 81.508C95.1382 77.4603 96.5652 72.8572 96.4067 67.7778C96.4067 66.6667 94.6625 66.0318 94.1868 67.1429C93.2354 69.2857 92.839 71.1905 92.9183 73.5715C92.9183 75.1588 95.1382 75.0794 95.2967 73.5715C95.8517 69.3651 95.8517 65.2381 95.2967 61.0318C95.1382 59.5238 92.9183 59.4445 92.9183 61.0318C92.9183 63.6508 93.1561 66.1111 93.7111 68.6508C94.0282 70 96.0103 69.6032 96.0103 68.3334C96.1688 64.4445 96.0103 60.5556 95.6139 56.7461C95.4553 55.2381 93.394 55.2381 93.2354 56.7461C92.839 61.4286 92.6804 66.0318 92.839 70.7143C93.6318 70.7143 94.4246 70.7143 95.2175 70.7143C94.9796 68.8889 94.7418 67.0635 94.5039 65.2381C94.3454 63.7302 91.9669 63.7302 92.1255 65.2381C92.7597 71.7461 92.1255 78.0159 90.1434 84.2857C89.747 85.6349 91.5705 86.2699 92.284 85.2381C100.688 72.5397 98.2302 57.1429 95.5346 43.0159C95.2967 41.6667 93.1561 41.9842 93.2354 43.3334C93.7111 57.1429 92.5219 70.873 89.747 84.4445C89.5092 85.7143 91.1741 86.508 91.8876 85.3969C94.9796 80.3969 96.7238 75.0794 97.3581 69.2064C97.5166 68.0159 95.6931 67.6191 95.1382 68.5715C93.6318 71.4286 92.839 74.3651 92.6804 77.6984C92.6012 79.0476 94.5832 79.2857 94.9796 78.0159C97.0409 71.7461 97.5166 65.4762 96.486 58.9683C96.3274 57.6984 94.5039 57.9365 94.1868 58.9683C93.394 61.4286 93.394 63.5715 93.9489 66.0318C94.2661 67.381 96.2481 66.9842 96.2481 65.7143C96.5653 57.4603 96.0103 49.2064 94.5039 41.0318C94.2661 39.5238 92.0462 40.1588 92.2047 41.6667C92.7597 45.873 92.839 50 92.3633 54.2064C92.2047 55.6349 94.2661 55.7143 94.6625 54.5238C97.8338 45.1588 96.4067 35 90.7777 26.9842C89.9848 25.873 88.3199 26.5873 88.6371 27.9365C89.6677 33.4127 91.2534 38.7302 93.394 43.8889C93.9489 45.3175 95.931 44.7619 95.6931 43.254C94.9796 39.2857 93.7904 35.6349 91.9669 32.0635C91.3326 30.7937 89.5092 31.7461 89.8263 33.0159C90.4605 36.1111 91.5705 38.9683 93.0768 41.7461C93.7111 42.9365 95.6139 42.1429 95.2175 40.7937C94.3454 37.5397 93.4733 34.3651 92.6012 31.1111C92.284 29.8413 90.2227 30.0794 90.302 31.4286C90.4605 35.5556 91.4119 39.2857 93.1561 43.0159C93.7904 44.3651 95.8517 43.1746 95.2175 41.8254C93.8697 38.8889 92.7597 35.873 91.8876 32.7778C91.4912 31.2699 89.3506 31.9048 89.5884 33.4127C90.3813 37.6984 91.1741 41.9048 91.8876 46.1905C92.6012 45.873 93.3147 45.5556 94.0282 45.2381C92.284 41.3492 90.6191 37.4603 88.8749 33.4921C88.3992 32.381 86.655 33.0159 86.655 34.127C86.7343 40.4762 87.2893 46.6667 88.3992 52.8572C89.192 52.6191 89.9056 52.4603 90.6984 52.2222C89.4299 47.6191 87.765 43.254 85.5451 39.0476C84.9108 37.7778 83.0873 38.7302 83.4044 40C84.5144 45.5556 85.6243 51.1905 86.655 56.7461C86.8929 57.9365 88.7163 57.8572 88.9542 56.7461C90.9362 48.1746 88.0028 39.2064 81.1845 33.5715C80.1539 32.6984 78.7268 33.7302 79.2818 35C79.6782 35.7937 79.9953 36.6667 80.3917 37.4603C81.1845 38.1746 83.2459 36.9842 82.6116 35.6349Z" fill="#FF8017"/>
<path d="M51.4541 1.58734C25.9253 6.26988 8.3247 26.508 2.53711 51.1905C-0.396319 63.5715 -1.18914 77.4604 2.29927 89.8413C4.12275 96.1112 7.37332 101.587 11.2581 106.825C15.143 112.064 19.1071 117.302 23.5468 122.064C34.2499 133.413 49.2342 140.238 63.5842 145.635C64.6942 146.032 65.0906 144.286 64.0599 143.889C52.0091 139.365 39.0861 133.651 29.2551 125.079C24.2604 120.714 20.0584 115.476 16.0943 110.238C12.2888 105.238 8.3247 100.318 5.78768 94.4445C0.792911 82.7778 1.03076 68.8889 3.17137 56.5873C5.2327 45.1588 9.51393 33.9683 16.57 24.7619C25.291 13.4127 37.8969 5.87306 51.9298 3.33338C53.119 3.09528 52.6433 1.34925 51.4541 1.58734Z" fill="black"/>
<path d="M51.2957 3.65074C62.9501 -0.396882 75.8731 3.17455 84.9112 11.2698C93.6322 19.0476 98.8649 30.0793 101.64 41.2698C107.586 65.1587 103.146 91.2698 89.906 111.905C82.2156 123.809 72.0675 133.809 61.6023 143.175C60.7302 143.968 61.9987 145.238 62.8708 144.444C72.7811 135.555 82.4535 126.111 89.9853 115.079C97.5171 104.127 102.512 91.5079 104.732 78.4126C108.617 55.238 104.573 25.7936 85.7833 9.60312C76.2695 1.42851 62.9501 -2.22228 50.8992 1.98407C49.71 2.30153 50.1857 4.04756 51.2957 3.65074Z" fill="black"/>
<path d="M61.5225 144.841C65.6452 145.476 68.8957 148.492 70.1643 152.46C71.6706 157.46 69.3714 160.794 66.2002 164.524C60.809 170.873 59.0648 179.206 57.3206 187.063C55.4178 195.238 54.2286 203.809 56.1313 212.143C58.1927 221.19 66.438 229.206 65.0902 238.889C64.9316 240 66.6759 240.476 66.8344 239.365C68.1822 229.682 60.9675 222.46 58.4305 213.651C55.1007 202.46 58.1927 190.476 61.1261 179.524C62.6325 173.968 64.5352 169.365 68.3408 164.921C70.4814 162.381 72.3049 159.841 72.5427 156.428C72.8598 150.159 68.3408 144.206 62.1568 143.175C60.8883 142.936 60.4126 144.603 61.5225 144.841Z" fill="black"/>
</g>
<defs>
<clipPath id="clip0">
<rect width="106" height="240" fill="white"/>
</clipPath>
</defs>
</svg>
